<svg width="275" height="50" viewBox="0 0 275 50" fill="none" xmlns="http://www.w3.org/2000/svg">
<path d="M51.7239 49.0975H58.9853L29.4928 19.6074L15.1424 33.9567V26.8235H10.0479V39.0507L0 49.0978H7.26142L11.11 45.2497H47.8753L51.7239 49.0975ZM16.245 40.1152L29.4928 26.8688L42.7406 40.1152H16.245Z" fill="#0CBB65"/>
<path d="M26.9971 35.0312C26.9971 36.4098 28.1146 37.5273 29.4931 37.5273C30.8717 37.5273 31.9895 36.4098 31.9895 35.0312C31.9895 33.6527 30.872 32.5352 29.4931 32.5352C28.1149 32.5352 26.9971 33.6527 26.9971 35.0312Z" fill="#0CBB65"/>
<path d="M21.1188 21.7083C21.5513 22.1218 22.2453 22.0742 22.6174 21.6057L25.7443 17.6685L25.091 17.0443L26.3405 15.7375C26.8566 15.1975 27.7131 15.1782 28.2531 15.6946L28.5954 16.0216L29.5518 15.0212L58.9998 44.4004L58.965 37.0806L32.0457 12.4121L33.0021 11.4116C33.0021 11.4116 28.2691 6.13671 36.886 0.0107366C25.2336 -0.388571 22.8024 10.4829 22.8024 10.4829L23.1447 10.8102C23.6847 11.3266 23.704 12.1828 23.1876 12.7228L21.9383 14.0297L21.2853 13.4052L17.4927 16.7059C17.0415 17.0986 17.0252 17.794 17.4577 18.2075L21.1188 21.7083Z" fill="#0CBB65"/>
<path d="M71.1719 17.0488V0.857422H78.75V3.51367H75.1367V7.12695H77.832V9.88086H75.1367V14.4023H78.7891V17.0488H71.1719ZM85.1855 17.3027C84.2611 17.3027 83.4701 17.1823 82.8125 16.9414C82.1615 16.694 81.6439 16.3294 81.2598 15.8477C80.8822 15.3659 80.6055 14.8027 80.4297 14.1582C80.2604 13.5137 80.1758 12.7552 80.1758 11.8828V6.0332C80.1758 5.1543 80.2604 4.39258 80.4297 3.74805C80.6055 3.10352 80.8822 2.54036 81.2598 2.05859C81.6439 1.57682 82.1615 1.21549 82.8125 0.974609C83.4701 0.727214 84.2611 0.603516 85.1855 0.603516C85.9212 0.603516 86.569 0.681641 87.1289 0.837891C87.6888 0.98763 88.1478 1.19922 88.5059 1.47266C88.8704 1.73958 89.1667 2.07487 89.3945 2.47852C89.6224 2.87565 89.7819 3.30208 89.873 3.75781C89.9707 4.21354 90.0195 4.72135 90.0195 5.28125V6.73633H86.123V4.95898C86.123 4.72461 86.1165 4.53906 86.1035 4.40234C86.0905 4.25911 86.0547 4.09635 85.9961 3.91406C85.944 3.72526 85.8496 3.58529 85.7129 3.49414C85.5762 3.39648 85.4004 3.34766 85.1855 3.34766C85.0098 3.34766 84.8568 3.38346 84.7266 3.45508C84.6029 3.52669 84.5085 3.61133 84.4434 3.70898C84.3783 3.80664 84.3262 3.93685 84.2871 4.09961C84.2546 4.26237 84.2318 4.4056 84.2188 4.5293C84.2122 4.65299 84.209 4.79948 84.209 4.96875V12.9375C84.209 13.1068 84.2122 13.2565 84.2188 13.3867C84.2318 13.5104 84.2578 13.6536 84.2969 13.8164C84.3359 13.9727 84.388 14.1029 84.4531 14.207C84.5182 14.3047 84.6126 14.3893 84.7363 14.4609C84.8665 14.526 85.0163 14.5586 85.1855 14.5586C85.4004 14.5586 85.5762 14.513 85.7129 14.4219C85.8496 14.3242 85.944 14.181 85.9961 13.9922C86.0547 13.8034 86.0905 13.6406 86.1035 13.5039C86.1165 13.3607 86.123 13.1719 86.123 12.9375V11.082H90.0195V12.5273C90.0195 13.0938 89.9707 13.6081 89.873 14.0703C89.7819 14.526 89.6224 14.959 89.3945 15.3691C89.1667 15.7793 88.8704 16.1243 88.5059 16.4043C88.1478 16.6777 87.6888 16.8958 87.1289 17.0586C86.569 17.2214 85.9212 17.3027 85.1855 17.3027ZM96.7285 17.3027C95.804 17.3027 95.013 17.1823 94.3555 16.9414C93.7044 16.694 93.1868 16.3294 92.8027 15.8477C92.4251 15.3659 92.1484 14.8027 91.9727 14.1582C91.8034 13.5137 91.7188 12.7552 91.7188 11.8828V6.0332C91.7188 5.1543 91.8034 4.39258 91.9727 3.74805C92.1484 3.10352 92.4251 2.54036 92.8027 2.05859C93.1868 1.57682 93.7044 1.21549 94.3555 0.974609C95.013 0.727214 95.804 0.603516 96.7285 0.603516C97.4642 0.603516 98.112 0.681641 98.6719 0.837891C99.2318 0.98763 99.6908 1.19922 100.049 1.47266C100.413 1.73958 100.71 2.07487 100.938 2.47852C101.165 2.87565 101.325 3.30208 101.416 3.75781C101.514 4.21354 101.562 4.72135 101.562 5.28125V6.73633H97.666V4.95898C97.666 4.72461 97.6595 4.53906 97.6465 4.40234C97.6335 4.25911 97.5977 4.09635 97.5391 3.91406C97.487 3.72526 97.3926 3.58529 97.2559 3.49414C97.1191 3.39648 96.9434 3.34766 96.7285 3.34766C96.5527 3.34766 96.3997 3.38346 96.2695 3.45508C96.1458 3.52669 96.0514 3.61133 95.9863 3.70898C95.9212 3.80664 95.8691 3.93685 95.8301 4.09961C95.7975 4.26237 95.7747 4.4056 95.7617 4.5293C95.7552 4.65299 95.752 4.79948 95.752 4.96875V12.9375C95.752 13.1068 95.7552 13.2565 95.7617 13.3867C95.7747 13.5104 95.8008 13.6536 95.8398 13.8164C95.8789 13.9727 95.931 14.1029 95.9961 14.207C96.0612 14.3047 96.1556 14.3893 96.2793 14.4609C96.4095 14.526 96.5592 14.5586 96.7285 14.5586C96.9434 14.5586 97.1191 14.513 97.2559 14.4219C97.3926 14.3242 97.487 14.181 97.5391 13.9922C97.5977 13.8034 97.6335 13.6406 97.6465 13.5039C97.6595 13.3607 97.666 13.1719 97.666 12.9375V11.082H101.562V12.5273C101.562 13.0938 101.514 13.6081 101.416 14.0703C101.325 14.526 101.165 14.959 100.938 15.3691C100.71 15.7793 100.413 16.1243 100.049 16.4043C99.6908 16.6777 99.2318 16.8958 98.6719 17.0586C98.112 17.2214 97.4642 17.3027 96.7285 17.3027Z" fill="white"/>
<path d="M75.67 28.9188H72.07L72.08 35.0488H71.09V28.0488H75.68L75.67 28.9188ZM78.5154 29.6988C79.0287 29.6988 79.4887 29.8122 79.8954 30.0388C80.3021 30.2655 80.6187 30.5822 80.8454 30.9888C81.0787 31.3955 81.1954 31.8655 81.1954 32.3988C81.1954 32.9322 81.0787 33.4055 80.8454 33.8188C80.6187 34.2255 80.3021 34.5422 79.8954 34.7688C79.4887 34.9955 79.0287 35.1088 78.5154 35.1088C78.1354 35.1088 77.7854 35.0355 77.4654 34.8888C77.1521 34.7422 76.8854 34.5288 76.6654 34.2488V36.9888H75.7054V29.7488H76.6254V30.5888C76.8387 30.2955 77.1087 30.0755 77.4354 29.9288C77.7621 29.7755 78.1221 29.6988 78.5154 29.6988ZM78.4354 34.2688C78.7754 34.2688 79.0787 34.1922 79.3454 34.0388C79.6187 33.8788 79.8321 33.6588 79.9854 33.3788C80.1454 33.0922 80.2254 32.7655 80.2254 32.3988C80.2254 32.0322 80.1454 31.7088 79.9854 31.4288C79.8321 31.1422 79.6187 30.9222 79.3454 30.7688C79.0787 30.6155 78.7754 30.5388 78.4354 30.5388C78.1021 30.5388 77.7987 30.6188 77.5254 30.7788C77.2587 30.9322 77.0454 31.1488 76.8854 31.4288C76.7321 31.7088 76.6554 32.0322 76.6554 32.3988C76.6554 32.7655 76.7321 33.0922 76.8854 33.3788C77.0387 33.6588 77.2521 33.8788 77.5254 34.0388C77.7987 34.1922 78.1021 34.2688 78.4354 34.2688ZM87.1737 29.7488L84.6037 35.5788C84.377 36.1188 84.1103 36.4988 83.8037 36.7188C83.5037 36.9388 83.1403 37.0488 82.7137 37.0488C82.4537 37.0488 82.2003 37.0055 81.9537 36.9188C81.7137 36.8388 81.5137 36.7188 81.3537 36.5588L81.7637 35.8388C82.037 36.0988 82.3537 36.2288 82.7137 36.2288C82.947 36.2288 83.1403 36.1655 83.2937 36.0388C83.4537 35.9188 83.597 35.7088 83.7237 35.4088L83.8937 35.0388L81.5537 29.7488H82.5537L84.4037 33.9888L86.2337 29.7488H87.1737ZM93.0666 29.7488V35.0488H92.1066V30.5888H89.1166V35.0488H88.1566V29.7488H93.0666ZM99.8341 29.7488V35.0488H98.8741V30.5888H95.8841V35.0488H94.9241V29.7488H99.8341ZM103.582 29.6988C104.315 29.6988 104.875 29.8788 105.262 30.2388C105.655 30.5988 105.852 31.1355 105.852 31.8488V35.0488H104.942V34.3488C104.782 34.5955 104.552 34.7855 104.252 34.9188C103.958 35.0455 103.608 35.1088 103.202 35.1088C102.608 35.1088 102.132 34.9655 101.772 34.6788C101.418 34.3922 101.242 34.0155 101.242 33.5488C101.242 33.0822 101.412 32.7088 101.752 32.4288C102.092 32.1422 102.632 31.9988 103.372 31.9988H104.892V31.8088C104.892 31.3955 104.772 31.0788 104.532 30.8588C104.292 30.6388 103.938 30.5288 103.472 30.5288C103.158 30.5288 102.852 30.5822 102.552 30.6888C102.252 30.7888 101.998 30.9255 101.792 31.0988L101.392 30.3788C101.665 30.1588 101.992 29.9922 102.372 29.8788C102.752 29.7588 103.155 29.6988 103.582 29.6988ZM103.362 34.3688C103.728 34.3688 104.045 34.2888 104.312 34.1288C104.578 33.9622 104.772 33.7288 104.892 33.4288V32.6888H103.412C102.598 32.6888 102.192 32.9622 102.192 33.5088C102.192 33.7755 102.295 33.9855 102.502 34.1388C102.708 34.2922 102.995 34.3688 103.362 34.3688ZM112.576 35.1088C112.036 35.1088 111.553 34.9922 111.126 34.7588C110.706 34.5255 110.376 34.2055 110.136 33.7988C109.896 33.3855 109.776 32.9188 109.776 32.3988C109.776 31.8788 109.896 31.4155 110.136 31.0088C110.376 30.5955 110.706 30.2755 111.126 30.0488C111.553 29.8155 112.036 29.6988 112.576 29.6988C113.056 29.6988 113.483 29.7955 113.856 29.9888C114.236 30.1822 114.529 30.4622 114.736 30.8288L114.006 31.2988C113.839 31.0455 113.633 30.8555 113.386 30.7288C113.139 30.6022 112.866 30.5388 112.566 30.5388C112.219 30.5388 111.906 30.6155 111.626 30.7688C111.353 30.9222 111.136 31.1422 110.976 31.4288C110.823 31.7088 110.746 32.0322 110.746 32.3988C110.746 32.7722 110.823 33.1022 110.976 33.3888C111.136 33.6688 111.353 33.8855 111.626 34.0388C111.906 34.1922 112.219 34.2688 112.566 34.2688C112.866 34.2688 113.139 34.2055 113.386 34.0788C113.633 33.9522 113.839 33.7622 114.006 33.5088L114.736 33.9688C114.529 34.3355 114.236 34.6188 113.856 34.8188C113.483 35.0122 113.056 35.1088 112.576 35.1088ZM119.86 30.5888H117.92V35.0488H116.96V30.5888H115.02V29.7488H119.86V30.5888ZM123.652 29.6988C124.165 29.6988 124.625 29.8122 125.032 30.0388C125.439 30.2655 125.755 30.5822 125.982 30.9888C126.215 31.3955 126.332 31.8655 126.332 32.3988C126.332 32.9322 126.215 33.4055 125.982 33.8188C125.755 34.2255 125.439 34.5422 125.032 34.7688C124.625 34.9955 124.165 35.1088 123.652 35.1088C123.272 35.1088 122.922 35.0355 122.602 34.8888C122.289 34.7422 122.022 34.5288 121.802 34.2488V36.9888H120.842V29.7488H121.762V30.5888C121.975 30.2955 122.245 30.0755 122.572 29.9288C122.899 29.7755 123.259 29.6988 123.652 29.6988ZM123.572 34.2688C123.912 34.2688 124.215 34.1922 124.482 34.0388C124.755 33.8788 124.969 33.6588 125.122 33.3788C125.282 33.0922 125.362 32.7655 125.362 32.3988C125.362 32.0322 125.282 31.7088 125.122 31.4288C124.969 31.1422 124.755 30.9222 124.482 30.7688C124.215 30.6155 123.912 30.5388 123.572 30.5388C123.239 30.5388 122.935 30.6188 122.662 30.7788C122.395 30.9322 122.182 31.1488 122.022 31.4288C121.869 31.7088 121.792 32.0322 121.792 32.3988C121.792 32.7655 121.869 33.0922 122.022 33.3788C122.175 33.6588 122.389 33.8788 122.662 34.0388C122.935 34.1922 123.239 34.2688 123.572 34.2688ZM129.997 35.1088C129.47 35.1088 128.997 34.9922 128.577 34.7588C128.157 34.5255 127.827 34.2055 127.587 33.7988C127.354 33.3855 127.237 32.9188 127.237 32.3988C127.237 31.8788 127.354 31.4155 127.587 31.0088C127.827 30.5955 128.157 30.2755 128.577 30.0488C128.997 29.8155 129.47 29.6988 129.997 29.6988C130.524 29.6988 130.994 29.8155 131.407 30.0488C131.827 30.2755 132.154 30.5955 132.387 31.0088C132.627 31.4155 132.747 31.8788 132.747 32.3988C132.747 32.9188 132.627 33.3855 132.387 33.7988C132.154 34.2055 131.827 34.5255 131.407 34.7588C130.994 34.9922 130.524 35.1088 129.997 35.1088ZM129.997 34.2688C130.337 34.2688 130.64 34.1922 130.907 34.0388C131.18 33.8788 131.394 33.6588 131.547 33.3788C131.7 33.0922 131.777 32.7655 131.777 32.3988C131.777 32.0322 131.7 31.7088 131.547 31.4288C131.394 31.1422 131.18 30.9222 130.907 30.7688C130.64 30.6155 130.337 30.5388 129.997 30.5388C129.657 30.5388 129.35 30.6155 129.077 30.7688C128.81 30.9222 128.597 31.1422 128.437 31.4288C128.284 31.7088 128.207 32.0322 128.207 32.3988C128.207 32.7655 128.284 33.0922 128.437 33.3788C128.597 33.6588 128.81 33.8788 129.077 34.0388C129.35 34.1922 129.657 34.2688 129.997 34.2688ZM134.133 29.7488H135.093V33.6088L138.343 29.7488H139.213V35.0488H138.253V31.1888L135.013 35.0488H134.133V29.7488ZM145.026 30.5888H143.086V35.0488H142.126V30.5888H140.186V29.7488H145.026V30.5888ZM150.564 32.4288C150.564 32.5022 150.557 32.5988 150.544 32.7188H146.244C146.304 33.1855 146.507 33.5622 146.854 33.8488C147.207 34.1288 147.644 34.2688 148.164 34.2688C148.797 34.2688 149.307 34.0555 149.694 33.6288L150.224 34.2488C149.984 34.5288 149.684 34.7422 149.324 34.8888C148.97 35.0355 148.574 35.1088 148.134 35.1088C147.574 35.1088 147.077 34.9955 146.644 34.7688C146.21 34.5355 145.874 34.2122 145.634 33.7988C145.4 33.3855 145.284 32.9188 145.284 32.3988C145.284 31.8855 145.397 31.4222 145.624 31.0088C145.857 30.5955 146.174 30.2755 146.574 30.0488C146.98 29.8155 147.437 29.6988 147.944 29.6988C148.45 29.6988 148.9 29.8155 149.294 30.0488C149.694 30.2755 150.004 30.5955 150.224 31.0088C150.45 31.4222 150.564 31.8955 150.564 32.4288ZM147.944 30.5088C147.484 30.5088 147.097 30.6488 146.784 30.9288C146.477 31.2088 146.297 31.5755 146.244 32.0288H149.644C149.59 31.5822 149.407 31.2188 149.094 30.9388C148.787 30.6522 148.404 30.5088 147.944 30.5088ZM156.515 29.7488V35.0488H155.555V30.5888H153.275L153.215 31.7688C153.182 32.4822 153.118 33.0788 153.025 33.5588C152.932 34.0322 152.778 34.4122 152.565 34.6988C152.352 34.9855 152.055 35.1288 151.675 35.1288C151.502 35.1288 151.305 35.0988 151.085 35.0388L151.145 34.2288C151.232 34.2488 151.312 34.2588 151.385 34.2588C151.652 34.2588 151.852 34.1422 151.985 33.9088C152.118 33.6755 152.205 33.3988 152.245 33.0788C152.285 32.7588 152.322 32.3022 152.355 31.7088L152.445 29.7488H156.515ZM160.821 31.5488C161.495 31.5555 162.008 31.7088 162.361 32.0088C162.715 32.3088 162.891 32.7322 162.891 33.2788C162.891 33.8522 162.698 34.2955 162.311 34.6088C161.931 34.9155 161.385 35.0655 160.671 35.0588L158.371 35.0488V29.7488H159.331V31.5388L160.821 31.5488ZM160.591 34.3288C161.025 34.3355 161.351 34.2488 161.571 34.0688C161.798 33.8888 161.911 33.6222 161.911 33.2688C161.911 32.9222 161.801 32.6688 161.581 32.5088C161.368 32.3488 161.038 32.2655 160.591 32.2588L159.331 32.2388V34.3188L160.591 34.3288ZM164.123 29.7488H165.083V31.9988H168.103V29.7488H169.063V35.0488H168.103V32.8288H165.083V35.0488H164.123V29.7488ZM173.32 31.5488C173.987 31.5555 174.497 31.7088 174.85 32.0088C175.203 32.3088 175.38 32.7322 175.38 33.2788C175.38 33.8522 175.187 34.2955 174.8 34.6088C174.42 34.9155 173.873 35.0655 173.16 35.0588L170.93 35.0488V29.7488H171.89V31.5388L173.32 31.5488ZM176.17 29.7488H177.13V35.0488H176.17V29.7488ZM173.09 34.3288C173.523 34.3355 173.85 34.2488 174.07 34.0688C174.297 33.8888 174.41 33.6222 174.41 33.2688C174.41 32.9222 174.3 32.6688 174.08 32.5088C173.86 32.3488 173.53 32.2655 173.09 32.2588L171.89 32.2388V34.3188L173.09 34.3288ZM182.306 35.0488L180.776 33.0188L179.226 35.0488H178.156L180.246 32.3388L178.256 29.7488H179.326L180.786 31.6588L182.236 29.7488H183.286L181.286 32.3388L183.396 35.0488H182.306ZM189.152 32.8088H188.052V35.0488H187.092V29.7488H188.052V31.9888H189.172L190.892 29.7488H191.922L189.912 32.2988L192.062 35.0488H190.932L189.152 32.8088ZM195.163 35.1088C194.636 35.1088 194.163 34.9922 193.743 34.7588C193.323 34.5255 192.993 34.2055 192.753 33.7988C192.52 33.3855 192.403 32.9188 192.403 32.3988C192.403 31.8788 192.52 31.4155 192.753 31.0088C192.993 30.5955 193.323 30.2755 193.743 30.0488C194.163 29.8155 194.636 29.6988 195.163 29.6988C195.69 29.6988 196.16 29.8155 196.573 30.0488C196.993 30.2755 197.32 30.5955 197.553 31.0088C197.793 31.4155 197.913 31.8788 197.913 32.3988C197.913 32.9188 197.793 33.3855 197.553 33.7988C197.32 34.2055 196.993 34.5255 196.573 34.7588C196.16 34.9922 195.69 35.1088 195.163 35.1088ZM195.163 34.2688C195.503 34.2688 195.806 34.1922 196.073 34.0388C196.346 33.8788 196.56 33.6588 196.713 33.3788C196.866 33.0922 196.943 32.7655 196.943 32.3988C196.943 32.0322 196.866 31.7088 196.713 31.4288C196.56 31.1422 196.346 30.9222 196.073 30.7688C195.806 30.6155 195.503 30.5388 195.163 30.5388C194.823 30.5388 194.516 30.6155 194.243 30.7688C193.976 30.9222 193.763 31.1422 193.603 31.4288C193.45 31.7088 193.373 32.0322 193.373 32.3988C193.373 32.7655 193.45 33.0922 193.603 33.3788C193.763 33.6588 193.976 33.8788 194.243 34.0388C194.516 34.1922 194.823 34.2688 195.163 34.2688ZM205.409 29.7488V35.0488H204.539V31.1788L202.559 34.4488H202.139L200.179 31.1688V35.0488H199.299V29.7488H200.289L202.369 33.3288L204.509 29.7488H205.409ZM212.188 29.7488V35.0488H211.228V30.5888H208.238V35.0488H207.278V29.7488H212.188ZM215.935 29.6988C216.669 29.6988 217.229 29.8788 217.615 30.2388C218.009 30.5988 218.205 31.1355 218.205 31.8488V35.0488H217.295V34.3488C217.135 34.5955 216.905 34.7855 216.605 34.9188C216.312 35.0455 215.962 35.1088 215.555 35.1088C214.962 35.1088 214.485 34.9655 214.125 34.6788C213.772 34.3922 213.595 34.0155 213.595 33.5488C213.595 33.0822 213.765 32.7088 214.105 32.4288C214.445 32.1422 214.985 31.9988 215.725 31.9988H217.245V31.8088C217.245 31.3955 217.125 31.0788 216.885 30.8588C216.645 30.6388 216.292 30.5288 215.825 30.5288C215.512 30.5288 215.205 30.5822 214.905 30.6888C214.605 30.7888 214.352 30.9255 214.145 31.0988L213.745 30.3788C214.019 30.1588 214.345 29.9922 214.725 29.8788C215.105 29.7588 215.509 29.6988 215.935 29.6988ZM215.715 34.3688C216.082 34.3688 216.399 34.2888 216.665 34.1288C216.932 33.9622 217.125 33.7288 217.245 33.4288V32.6888H215.765C214.952 32.6888 214.545 32.9622 214.545 33.5088C214.545 33.7755 214.649 33.9855 214.855 34.1388C215.062 34.2922 215.349 34.3688 215.715 34.3688ZM219.934 29.7488H220.894V31.9988H223.914V29.7488H224.874V35.0488H223.914V32.8288H220.894V35.0488H219.934V29.7488ZM226.741 29.7488H227.701V33.6088L230.951 29.7488H231.821V35.0488H230.861V31.1888L227.621 35.0488H226.741V29.7488ZM233.684 29.7488H234.644V33.6088L237.894 29.7488H238.764V35.0488H237.804V31.1888L234.564 35.0488H233.684V29.7488ZM236.164 29.0588C235.671 29.0588 235.287 28.9422 235.014 28.7088C234.741 28.4688 234.601 28.1255 234.594 27.6788H235.244C235.251 27.9255 235.334 28.1255 235.494 28.2788C235.661 28.4255 235.881 28.4988 236.154 28.4988C236.427 28.4988 236.647 28.4255 236.814 28.2788C236.981 28.1255 237.067 27.9255 237.074 27.6788H237.744C237.737 28.1255 237.594 28.4688 237.314 28.7088C237.034 28.9422 236.651 29.0588 236.164 29.0588ZM75.84 41.7488V47.0488H74.88V42.5888H71.89V47.0488H70.93V41.7488H75.84ZM79.9676 47.1088C79.4409 47.1088 78.9676 46.9922 78.5476 46.7588C78.1276 46.5255 77.7976 46.2055 77.5576 45.7988C77.3242 45.3855 77.2076 44.9188 77.2076 44.3988C77.2076 43.8788 77.3242 43.4155 77.5576 43.0088C77.7976 42.5955 78.1276 42.2755 78.5476 42.0488C78.9676 41.8155 79.4409 41.6988 79.9676 41.6988C80.4942 41.6988 80.9642 41.8155 81.3776 42.0488C81.7976 42.2755 82.1242 42.5955 82.3576 43.0088C82.5976 43.4155 82.7176 43.8788 82.7176 44.3988C82.7176 44.9188 82.5976 45.3855 82.3576 45.7988C82.1242 46.2055 81.7976 46.5255 81.3776 46.7588C80.9642 46.9922 80.4942 47.1088 79.9676 47.1088ZM79.9676 46.2688C80.3076 46.2688 80.6109 46.1922 80.8776 46.0388C81.1509 45.8788 81.3642 45.6588 81.5176 45.3788C81.6709 45.0922 81.7476 44.7655 81.7476 44.3988C81.7476 44.0322 81.6709 43.7088 81.5176 43.4288C81.3642 43.1422 81.1509 42.9222 80.8776 42.7688C80.6109 42.6155 80.3076 42.5388 79.9676 42.5388C79.6276 42.5388 79.3209 42.6155 79.0476 42.7688C78.7809 42.9222 78.5676 43.1422 78.4076 43.4288C78.2542 43.7088 78.1776 44.0322 78.1776 44.3988C78.1776 44.7655 78.2542 45.0922 78.4076 45.3788C78.5676 45.6588 78.7809 45.8788 79.0476 46.0388C79.3209 46.1922 79.6276 46.2688 79.9676 46.2688ZM88.6148 41.7488V47.0488H87.6548V42.5888H85.3748L85.3148 43.7688C85.2814 44.4822 85.2181 45.0788 85.1248 45.5588C85.0314 46.0322 84.8781 46.4122 84.6648 46.6988C84.4514 46.9855 84.1548 47.1288 83.7748 47.1288C83.6014 47.1288 83.4048 47.0988 83.1848 47.0388L83.2448 46.2288C83.3314 46.2488 83.4114 46.2588 83.4848 46.2588C83.7514 46.2588 83.9514 46.1422 84.0848 45.9088C84.2181 45.6755 84.3048 45.3988 84.3448 45.0788C84.3848 44.7588 84.4214 44.3022 84.4548 43.7088L84.5448 41.7488H88.6148ZM90.471 41.7488H91.431V43.9988H94.451V41.7488H95.411V47.0488H94.451V44.8288H91.431V47.0488H90.471V41.7488ZM99.5477 47.1088C99.021 47.1088 98.5477 46.9922 98.1277 46.7588C97.7077 46.5255 97.3777 46.2055 97.1377 45.7988C96.9043 45.3855 96.7877 44.9188 96.7877 44.3988C96.7877 43.8788 96.9043 43.4155 97.1377 43.0088C97.3777 42.5955 97.7077 42.2755 98.1277 42.0488C98.5477 41.8155 99.021 41.6988 99.5477 41.6988C100.074 41.6988 100.544 41.8155 100.958 42.0488C101.378 42.2755 101.704 42.5955 101.938 43.0088C102.178 43.4155 102.298 43.8788 102.298 44.3988C102.298 44.9188 102.178 45.3855 101.938 45.7988C101.704 46.2055 101.378 46.5255 100.958 46.7588C100.544 46.9922 100.074 47.1088 99.5477 47.1088ZM99.5477 46.2688C99.8877 46.2688 100.191 46.1922 100.458 46.0388C100.731 45.8788 100.944 45.6588 101.098 45.3788C101.251 45.0922 101.328 44.7655 101.328 44.3988C101.328 44.0322 101.251 43.7088 101.098 43.4288C100.944 43.1422 100.731 42.9222 100.458 42.7688C100.191 42.6155 99.8877 42.5388 99.5477 42.5388C99.2077 42.5388 98.901 42.6155 98.6277 42.7688C98.361 42.9222 98.1477 43.1422 97.9877 43.4288C97.8343 43.7088 97.7577 44.0322 97.7577 44.3988C97.7577 44.7655 97.8343 45.0922 97.9877 45.3788C98.1477 45.6588 98.361 45.8788 98.6277 46.0388C98.901 46.1922 99.2077 46.2688 99.5477 46.2688ZM107.584 42.5888H104.644V47.0488H103.684V41.7488H107.584V42.5888ZM110.602 47.1088C110.076 47.1088 109.602 46.9922 109.182 46.7588C108.762 46.5255 108.432 46.2055 108.192 45.7988C107.959 45.3855 107.842 44.9188 107.842 44.3988C107.842 43.8788 107.959 43.4155 108.192 43.0088C108.432 42.5955 108.762 42.2755 109.182 42.0488C109.602 41.8155 110.076 41.6988 110.602 41.6988C111.129 41.6988 111.599 41.8155 112.012 42.0488C112.432 42.2755 112.759 42.5955 112.992 43.0088C113.232 43.4155 113.352 43.8788 113.352 44.3988C113.352 44.9188 113.232 45.3855 112.992 45.7988C112.759 46.2055 112.432 46.5255 112.012 46.7588C111.599 46.9922 111.129 47.1088 110.602 47.1088ZM110.602 46.2688C110.942 46.2688 111.246 46.1922 111.512 46.0388C111.786 45.8788 111.999 45.6588 112.152 45.3788C112.306 45.0922 112.382 44.7655 112.382 44.3988C112.382 44.0322 112.306 43.7088 112.152 43.4288C111.999 43.1422 111.786 42.9222 111.512 42.7688C111.246 42.6155 110.942 42.5388 110.602 42.5388C110.262 42.5388 109.956 42.6155 109.682 42.7688C109.416 42.9222 109.202 43.1422 109.042 43.4288C108.889 43.7088 108.812 44.0322 108.812 44.3988C108.812 44.7655 108.889 45.0922 109.042 45.3788C109.202 45.6588 109.416 45.8788 109.682 46.0388C109.956 46.1922 110.262 46.2688 110.602 46.2688ZM123.084 46.2088V48.3188H122.174V47.0488H117.424V41.7488H118.384V46.2088H121.284V41.7488H122.244V46.2088H123.084ZM124.328 41.7488H125.288V45.6088L128.538 41.7488H129.408V47.0488H128.448V43.1888L125.208 47.0488H124.328V41.7488ZM133.332 44.8088H132.232V47.0488H131.272V41.7488H132.232V43.9888H133.352L135.072 41.7488H136.102L134.092 44.2988L136.242 47.0488H135.112L133.332 44.8088ZM141.798 41.7488V47.0488H140.838V42.5888H138.558L138.498 43.7688C138.465 44.4822 138.402 45.0788 138.308 45.5588C138.215 46.0322 138.062 46.4122 137.848 46.6988C137.635 46.9855 137.338 47.1288 136.958 47.1288C136.785 47.1288 136.588 47.0988 136.368 47.0388L136.428 46.2288C136.515 46.2488 136.595 46.2588 136.668 46.2588C136.935 46.2588 137.135 46.1422 137.268 45.9088C137.402 45.6755 137.488 45.3988 137.528 45.0788C137.568 44.7588 137.605 44.3022 137.638 43.7088L137.728 41.7488H141.798ZM145.545 41.6988C146.278 41.6988 146.838 41.8788 147.225 42.2388C147.618 42.5988 147.815 43.1355 147.815 43.8488V47.0488H146.905V46.3488C146.745 46.5955 146.515 46.7855 146.215 46.9188C145.921 47.0455 145.571 47.1088 145.165 47.1088C144.571 47.1088 144.095 46.9655 143.735 46.6788C143.381 46.3922 143.205 46.0155 143.205 45.5488C143.205 45.0822 143.375 44.7088 143.715 44.4288C144.055 44.1422 144.595 43.9988 145.335 43.9988H146.855V43.8088C146.855 43.3955 146.735 43.0788 146.495 42.8588C146.255 42.6388 145.901 42.5288 145.435 42.5288C145.121 42.5288 144.815 42.5822 144.515 42.6888C144.215 42.7888 143.961 42.9255 143.755 43.0988L143.355 42.3788C143.628 42.1588 143.955 41.9922 144.335 41.8788C144.715 41.7588 145.118 41.6988 145.545 41.6988ZM145.325 46.3688C145.691 46.3688 146.008 46.2888 146.275 46.1288C146.541 45.9622 146.735 45.7288 146.855 45.4288V44.6888H145.375C144.561 44.6888 144.155 44.9622 144.155 45.5088C144.155 45.7755 144.258 45.9855 144.465 46.1388C144.671 46.2922 144.958 46.3688 145.325 46.3688ZM155.839 44.2988C156.525 44.4722 156.869 44.9022 156.869 45.5888C156.869 46.0555 156.692 46.4155 156.339 46.6688C155.992 46.9222 155.472 47.0488 154.779 47.0488H152.229V41.7488H154.689C155.315 41.7488 155.805 41.8688 156.159 42.1088C156.512 42.3422 156.689 42.6755 156.689 43.1088C156.689 43.3888 156.612 43.6322 156.459 43.8388C156.312 44.0388 156.105 44.1922 155.839 44.2988ZM153.169 44.0288H154.609C154.975 44.0288 155.252 43.9622 155.439 43.8288C155.632 43.6955 155.729 43.5022 155.729 43.2488C155.729 42.7422 155.355 42.4888 154.609 42.4888H153.169V44.0288ZM154.709 46.3088C155.109 46.3088 155.409 46.2455 155.609 46.1188C155.809 45.9922 155.909 45.7955 155.909 45.5288C155.909 45.2555 155.815 45.0522 155.629 44.9188C155.449 44.7855 155.162 44.7188 154.769 44.7188H153.169V46.3088H154.709ZM163.657 43.9688H162.197V47.0488H161.217V40.0488H162.197V43.0888H163.677L165.877 40.0488H166.947L164.447 43.4388L167.067 47.0488H165.927L163.657 43.9688ZM170.879 41.6988C171.392 41.6988 171.852 41.8122 172.259 42.0388C172.665 42.2655 172.982 42.5822 173.209 42.9888C173.442 43.3955 173.559 43.8655 173.559 44.3988C173.559 44.9322 173.442 45.4055 173.209 45.8188C172.982 46.2255 172.665 46.5422 172.259 46.7688C171.852 46.9955 171.392 47.1088 170.879 47.1088C170.499 47.1088 170.149 47.0355 169.829 46.8888C169.515 46.7422 169.249 46.5288 169.029 46.2488V48.9888H168.069V41.7488H168.989V42.5888C169.202 42.2955 169.472 42.0755 169.799 41.9288C170.125 41.7755 170.485 41.6988 170.879 41.6988ZM170.799 46.2688C171.139 46.2688 171.442 46.1922 171.709 46.0388C171.982 45.8788 172.195 45.6588 172.349 45.3788C172.509 45.0922 172.589 44.7655 172.589 44.3988C172.589 44.0322 172.509 43.7088 172.349 43.4288C172.195 43.1422 171.982 42.9222 171.709 42.7688C171.442 42.6155 171.139 42.5388 170.799 42.5388C170.465 42.5388 170.162 42.6188 169.889 42.7788C169.622 42.9322 169.409 43.1488 169.249 43.4288C169.095 43.7088 169.019 44.0322 169.019 44.3988C169.019 44.7655 169.095 45.0922 169.249 45.3788C169.402 45.6588 169.615 45.8788 169.889 46.0388C170.162 46.1922 170.465 46.2688 170.799 46.2688ZM176.795 41.6988C177.528 41.6988 178.088 41.8788 178.475 42.2388C178.868 42.5988 179.065 43.1355 179.065 43.8488V47.0488H178.155V46.3488C177.995 46.5955 177.765 46.7855 177.465 46.9188C177.171 47.0455 176.821 47.1088 176.415 47.1088C175.821 47.1088 175.345 46.9655 174.985 46.6788C174.631 46.3922 174.455 46.0155 174.455 45.5488C174.455 45.0822 174.625 44.7088 174.965 44.4288C175.305 44.1422 175.845 43.9988 176.585 43.9988H178.105V43.8088C178.105 43.3955 177.985 43.0788 177.745 42.8588C177.505 42.6388 177.151 42.5288 176.685 42.5288C176.371 42.5288 176.065 42.5822 175.765 42.6888C175.465 42.7888 175.211 42.9255 175.005 43.0988L174.605 42.3788C174.878 42.1588 175.205 41.9922 175.585 41.8788C175.965 41.7588 176.368 41.6988 176.795 41.6988ZM176.575 46.3688C176.941 46.3688 177.258 46.2888 177.525 46.1288C177.791 45.9622 177.985 45.7288 178.105 45.4288V44.6888H176.625C175.811 44.6888 175.405 44.9622 175.405 45.5088C175.405 45.7755 175.508 45.9855 175.715 46.1388C175.921 46.2922 176.208 46.3688 176.575 46.3688ZM183.103 47.1088C182.563 47.1088 182.08 46.9922 181.653 46.7588C181.233 46.5255 180.903 46.2055 180.663 45.7988C180.423 45.3855 180.303 44.9188 180.303 44.3988C180.303 43.8788 180.423 43.4155 180.663 43.0088C180.903 42.5955 181.233 42.2755 181.653 42.0488C182.08 41.8155 182.563 41.6988 183.103 41.6988C183.583 41.6988 184.01 41.7955 184.383 41.9888C184.763 42.1822 185.057 42.4622 185.263 42.8288L184.533 43.2988C184.367 43.0455 184.16 42.8555 183.913 42.7288C183.667 42.6022 183.393 42.5388 183.093 42.5388C182.747 42.5388 182.433 42.6155 182.153 42.7688C181.88 42.9222 181.663 43.1422 181.503 43.4288C181.35 43.7088 181.273 44.0322 181.273 44.3988C181.273 44.7722 181.35 45.1022 181.503 45.3888C181.663 45.6688 181.88 45.8855 182.153 46.0388C182.433 46.1922 182.747 46.2688 183.093 46.2688C183.393 46.2688 183.667 46.2055 183.913 46.0788C184.16 45.9522 184.367 45.7622 184.533 45.5088L185.263 45.9688C185.057 46.3355 184.763 46.6188 184.383 46.8188C184.01 47.0122 183.583 47.1088 183.103 47.1088ZM186.506 41.7488H187.466V43.9988H190.486V41.7488H191.446V47.0488H190.486V44.8288H187.466V47.0488H186.506V41.7488ZM195.583 47.1088C195.056 47.1088 194.583 46.9922 194.163 46.7588C193.743 46.5255 193.413 46.2055 193.173 45.7988C192.939 45.3855 192.823 44.9188 192.823 44.3988C192.823 43.8788 192.939 43.4155 193.173 43.0088C193.413 42.5955 193.743 42.2755 194.163 42.0488C194.583 41.8155 195.056 41.6988 195.583 41.6988C196.109 41.6988 196.579 41.8155 196.993 42.0488C197.413 42.2755 197.739 42.5955 197.973 43.0088C198.213 43.4155 198.333 43.8788 198.333 44.3988C198.333 44.9188 198.213 45.3855 197.973 45.7988C197.739 46.2055 197.413 46.5255 196.993 46.7588C196.579 46.9922 196.109 47.1088 195.583 47.1088ZM195.583 46.2688C195.923 46.2688 196.226 46.1922 196.493 46.0388C196.766 45.8788 196.979 45.6588 197.133 45.3788C197.286 45.0922 197.363 44.7655 197.363 44.3988C197.363 44.0322 197.286 43.7088 197.133 43.4288C196.979 43.1422 196.766 42.9222 196.493 42.7688C196.226 42.6155 195.923 42.5388 195.583 42.5388C195.243 42.5388 194.936 42.6155 194.663 42.7688C194.396 42.9222 194.183 43.1422 194.023 43.4288C193.869 43.7088 193.793 44.0322 193.793 44.3988C193.793 44.7655 193.869 45.0922 194.023 45.3788C194.183 45.6588 194.396 45.8788 194.663 46.0388C194.936 46.1922 195.243 46.2688 195.583 46.2688ZM205.07 46.2088V48.2788H204.17V47.0488H199.74V48.2788H198.83V46.2088H199.11C199.45 46.1888 199.683 45.9488 199.81 45.4888C199.937 45.0288 200.023 44.3788 200.07 43.5388L200.15 41.7488H204.26V46.2088H205.07ZM200.95 43.6088C200.923 44.2755 200.867 44.8288 200.78 45.2688C200.7 45.7022 200.55 46.0155 200.33 46.2088H203.3V42.5888H201L200.95 43.6088ZM208.211 41.6988C208.944 41.6988 209.504 41.8788 209.891 42.2388C210.284 42.5988 210.481 43.1355 210.481 43.8488V47.0488H209.571V46.3488C209.411 46.5955 209.181 46.7855 208.881 46.9188C208.587 47.0455 208.237 47.1088 207.831 47.1088C207.237 47.1088 206.761 46.9655 206.401 46.6788C206.047 46.3922 205.871 46.0155 205.871 45.5488C205.871 45.0822 206.041 44.7088 206.381 44.4288C206.721 44.1422 207.261 43.9988 208.001 43.9988H209.521V43.8088C209.521 43.3955 209.401 43.0788 209.161 42.8588C208.921 42.6388 208.567 42.5288 208.101 42.5288C207.787 42.5288 207.481 42.5822 207.181 42.6888C206.881 42.7888 206.627 42.9255 206.421 43.0988L206.021 42.3788C206.294 42.1588 206.621 41.9922 207.001 41.8788C207.381 41.7588 207.784 41.6988 208.211 41.6988ZM207.991 46.3688C208.357 46.3688 208.674 46.2888 208.941 46.1288C209.207 45.9622 209.401 45.7288 209.521 45.4288V44.6888H208.041C207.227 44.6888 206.821 44.9622 206.821 45.5088C206.821 45.7755 206.924 45.9855 207.131 46.1388C207.337 46.2922 207.624 46.3688 207.991 46.3688ZM215.019 41.6988C215.533 41.6988 215.993 41.8122 216.399 42.0388C216.806 42.2655 217.123 42.5822 217.349 42.9888C217.583 43.3955 217.699 43.8655 217.699 44.3988C217.699 44.9322 217.583 45.4055 217.349 45.8188C217.123 46.2255 216.806 46.5422 216.399 46.7688C215.993 46.9955 215.533 47.1088 215.019 47.1088C214.639 47.1088 214.289 47.0355 213.969 46.8888C213.656 46.7422 213.389 46.5288 213.169 46.2488V48.9888H212.209V41.7488H213.129V42.5888C213.343 42.2955 213.613 42.0755 213.939 41.9288C214.266 41.7755 214.626 41.6988 215.019 41.6988ZM214.939 46.2688C215.279 46.2688 215.583 46.1922 215.849 46.0388C216.123 45.8788 216.336 45.6588 216.489 45.3788C216.649 45.0922 216.729 44.7655 216.729 44.3988C216.729 44.0322 216.649 43.7088 216.489 43.4288C216.336 43.1422 216.123 42.9222 215.849 42.7688C215.583 42.6155 215.279 42.5388 214.939 42.5388C214.606 42.5388 214.303 42.6188 214.029 42.7788C213.763 42.9322 213.549 43.1488 213.389 43.4288C213.236 43.7088 213.159 44.0322 213.159 44.3988C213.159 44.7655 213.236 45.0922 213.389 45.3788C213.543 45.6588 213.756 45.8788 214.029 46.0388C214.303 46.1922 214.606 46.2688 214.939 46.2688ZM221.404 47.1088C220.864 47.1088 220.381 46.9922 219.954 46.7588C219.534 46.5255 219.204 46.2055 218.964 45.7988C218.724 45.3855 218.604 44.9188 218.604 44.3988C218.604 43.8788 218.724 43.4155 218.964 43.0088C219.204 42.5955 219.534 42.2755 219.954 42.0488C220.381 41.8155 220.864 41.6988 221.404 41.6988C221.884 41.6988 222.311 41.7955 222.684 41.9888C223.064 42.1822 223.357 42.4622 223.564 42.8288L222.834 43.2988C222.667 43.0455 222.461 42.8555 222.214 42.7288C221.967 42.6022 221.694 42.5388 221.394 42.5388C221.047 42.5388 220.734 42.6155 220.454 42.7688C220.181 42.9222 219.964 43.1422 219.804 43.4288C219.651 43.7088 219.574 44.0322 219.574 44.3988C219.574 44.7722 219.651 45.1022 219.804 45.3888C219.964 45.6688 220.181 45.8855 220.454 46.0388C220.734 46.1922 221.047 46.2688 221.394 46.2688C221.694 46.2688 221.967 46.2055 222.214 46.0788C222.461 45.9522 222.667 45.7622 222.834 45.5088L223.564 45.9688C223.357 46.3355 223.064 46.6188 222.684 46.8188C222.311 47.0122 221.884 47.1088 221.404 47.1088ZM226.867 44.8088H225.767V47.0488H224.807V41.7488H225.767V43.9888H226.887L228.607 41.7488H229.637L227.627 44.2988L229.777 47.0488H228.647L226.867 44.8088ZM232.878 47.1088C232.351 47.1088 231.878 46.9922 231.458 46.7588C231.038 46.5255 230.708 46.2055 230.468 45.7988C230.234 45.3855 230.118 44.9188 230.118 44.3988C230.118 43.8788 230.234 43.4155 230.468 43.0088C230.708 42.5955 231.038 42.2755 231.458 42.0488C231.878 41.8155 232.351 41.6988 232.878 41.6988C233.404 41.6988 233.874 41.8155 234.288 42.0488C234.708 42.2755 235.034 42.5955 235.268 43.0088C235.508 43.4155 235.628 43.8788 235.628 44.3988C235.628 44.9188 235.508 45.3855 235.268 45.7988C235.034 46.2055 234.708 46.5255 234.288 46.7588C233.874 46.9922 233.404 47.1088 232.878 47.1088ZM232.878 46.2688C233.218 46.2688 233.521 46.1922 233.788 46.0388C234.061 45.8788 234.274 45.6588 234.428 45.3788C234.581 45.0922 234.658 44.7655 234.658 44.3988C234.658 44.0322 234.581 43.7088 234.428 43.4288C234.274 43.1422 234.061 42.9222 233.788 42.7688C233.521 42.6155 233.218 42.5388 232.878 42.5388C232.538 42.5388 232.231 42.6155 231.958 42.7688C231.691 42.9222 231.478 43.1422 231.318 43.4288C231.164 43.7088 231.088 44.0322 231.088 44.3988C231.088 44.7655 231.164 45.0922 231.318 45.3788C231.478 45.6588 231.691 45.8788 231.958 46.0388C232.231 46.1922 232.538 46.2688 232.878 46.2688ZM243.124 41.7488V47.0488H242.254V43.1788L240.274 46.4488H239.854L237.894 43.1688V47.0488H237.014V41.7488H238.004L240.084 45.3288L242.224 41.7488H243.124ZM249.738 44.8088H248.638V47.0488H247.678V41.7488H248.638V43.9888H249.758L251.478 41.7488H252.508L250.498 44.2988L252.648 47.0488H251.518L249.738 44.8088ZM256.465 41.6988C256.978 41.6988 257.438 41.8122 257.845 42.0388C258.251 42.2655 258.568 42.5822 258.795 42.9888C259.028 43.3955 259.145 43.8655 259.145 44.3988C259.145 44.9322 259.028 45.4055 258.795 45.8188C258.568 46.2255 258.251 46.5422 257.845 46.7688C257.438 46.9955 256.978 47.1088 256.465 47.1088C256.085 47.1088 255.735 47.0355 255.415 46.8888C255.101 46.7422 254.835 46.5288 254.615 46.2488V48.9888H253.655V41.7488H254.575V42.5888C254.788 42.2955 255.058 42.0755 255.385 41.9288C255.711 41.7755 256.071 41.6988 256.465 41.6988ZM256.385 46.2688C256.725 46.2688 257.028 46.1922 257.295 46.0388C257.568 45.8788 257.781 45.6588 257.935 45.3788C258.095 45.0922 258.175 44.7655 258.175 44.3988C258.175 44.0322 258.095 43.7088 257.935 43.4288C257.781 43.1422 257.568 42.9222 257.295 42.7688C257.028 42.6155 256.725 42.5388 256.385 42.5388C256.051 42.5388 255.748 42.6188 255.475 42.7788C255.208 42.9322 254.995 43.1488 254.835 43.4288C254.681 43.7088 254.605 44.0322 254.605 44.3988C254.605 44.7655 254.681 45.0922 254.835 45.3788C254.988 45.6588 255.201 45.8788 255.475 46.0388C255.748 46.1922 256.051 46.2688 256.385 46.2688ZM262.381 41.6988C263.114 41.6988 263.674 41.8788 264.061 42.2388C264.454 42.5988 264.651 43.1355 264.651 43.8488V47.0488H263.741V46.3488C263.581 46.5955 263.351 46.7855 263.051 46.9188C262.757 47.0455 262.407 47.1088 262.001 47.1088C261.407 47.1088 260.931 46.9655 260.571 46.6788C260.217 46.3922 260.041 46.0155 260.041 45.5488C260.041 45.0822 260.211 44.7088 260.551 44.4288C260.891 44.1422 261.431 43.9988 262.171 43.9988H263.691V43.8088C263.691 43.3955 263.571 43.0788 263.331 42.8588C263.091 42.6388 262.737 42.5288 262.271 42.5288C261.957 42.5288 261.651 42.5822 261.351 42.6888C261.051 42.7888 260.797 42.9255 260.591 43.0988L260.191 42.3788C260.464 42.1588 260.791 41.9922 261.171 41.8788C261.551 41.7588 261.954 41.6988 262.381 41.6988ZM262.161 46.3688C262.527 46.3688 262.844 46.2888 263.111 46.1288C263.377 45.9622 263.571 45.7288 263.691 45.4288V44.6888H262.211C261.397 44.6888 260.991 44.9622 260.991 45.5088C260.991 45.7755 261.094 45.9855 261.301 46.1388C261.507 46.2922 261.794 46.3688 262.161 46.3688ZM271.169 44.4288C271.169 44.5022 271.163 44.5988 271.149 44.7188H266.849C266.909 45.1855 267.113 45.5622 267.459 45.8488C267.813 46.1288 268.249 46.2688 268.769 46.2688C269.403 46.2688 269.913 46.0555 270.299 45.6288L270.829 46.2488C270.589 46.5288 270.289 46.7422 269.929 46.8888C269.576 47.0355 269.179 47.1088 268.739 47.1088C268.179 47.1088 267.683 46.9955 267.249 46.7688C266.816 46.5355 266.479 46.2122 266.239 45.7988C266.006 45.3855 265.889 44.9188 265.889 44.3988C265.889 43.8855 266.003 43.4222 266.229 43.0088C266.463 42.5955 266.779 42.2755 267.179 42.0488C267.586 41.8155 268.043 41.6988 268.549 41.6988C269.056 41.6988 269.506 41.8155 269.899 42.0488C270.299 42.2755 270.609 42.5955 270.829 43.0088C271.056 43.4222 271.169 43.8955 271.169 44.4288ZM268.549 42.5088C268.089 42.5088 267.703 42.6488 267.389 42.9288C267.083 43.2088 266.903 43.5755 266.849 44.0288H270.249C270.196 43.5822 270.013 43.2188 269.699 42.9388C269.393 42.6522 269.009 42.5088 268.549 42.5088Z" fill="white" fill-opacity="0.5"/>
</svg>
