<svg width="197" height="40" viewBox="0 0 197 40" fill="none" xmlns="http://www.w3.org/2000/svg">
<path d="M18.0192 3.40273C18.664 2.04227 20.5999 2.04227 21.2447 3.40273L24.8457 11.0004C25.1059 11.5494 25.6274 11.9283 26.2298 12.0061L34.5685 13.083C36.0616 13.2759 36.6598 15.117 35.5652 16.1507L29.4521 21.9232C29.0105 22.3403 28.8113 22.9534 28.9234 23.5504L30.476 31.8137C30.754 33.2934 29.1878 34.4312 27.8665 33.7096L20.4874 29.6795C19.9543 29.3884 19.3096 29.3884 18.7765 29.6795L11.3974 33.7096C10.0761 34.4312 8.5099 33.2933 8.78791 31.8137L10.3405 23.5504C10.4526 22.9534 10.2534 22.3403 9.81177 21.9232L3.69868 16.1507C2.60406 15.117 3.20228 13.2759 4.69541 13.083L13.034 12.0061C13.6365 11.9283 14.158 11.5494 14.4182 11.0004L18.0192 3.40273Z" fill="url(#paint0_radial_1_209)"/>
<path d="M57.2848 3.40273C57.9296 2.04227 59.8655 2.04227 60.5103 3.40273L64.1113 11.0004C64.3715 11.5494 64.893 11.9283 65.4955 12.0061L73.8341 13.083C75.3272 13.2759 75.9255 15.117 74.8308 16.1507L68.7177 21.9232C68.2761 22.3403 68.0769 22.9534 68.189 23.5504L69.7416 31.8137C70.0196 33.2934 68.4534 34.4312 67.1321 33.7096L59.753 29.6795C59.2199 29.3884 58.5753 29.3884 58.0421 29.6795L50.663 33.7096C49.3417 34.4312 47.7755 33.2933 48.0535 31.8137L49.6061 23.5504C49.7183 22.9534 49.5191 22.3403 49.0774 21.9232L42.9643 16.1507C41.8697 15.117 42.4679 13.2759 43.961 13.083L52.2997 12.0061C52.9021 11.9283 53.4236 11.5494 53.6838 11.0004L57.2848 3.40273Z" fill="url(#paint1_radial_1_209)"/>
<path d="M96.5465 3.40273C97.1913 2.04227 99.1272 2.04227 99.772 3.40273L103.373 11.0004C103.633 11.5494 104.155 11.9283 104.757 12.0061L113.096 13.083C114.589 13.2759 115.187 15.117 114.093 16.1507L107.979 21.9232C107.538 22.3403 107.339 22.9534 107.451 23.5504L109.003 31.8137C109.281 33.2934 107.715 34.4312 106.394 33.7096L99.0147 29.6795C98.4816 29.3884 97.837 29.3884 97.3038 29.6795L89.9247 33.7096C88.6034 34.4312 87.0372 33.2933 87.3153 31.8137L88.8678 23.5504C88.98 22.9534 88.7808 22.3403 88.3391 21.9232L82.226 16.1507C81.1314 15.117 81.7296 13.2759 83.2228 13.083L91.5614 12.0061C92.1638 11.9283 92.6854 11.5494 92.9455 11.0004L96.5465 3.40273Z" fill="url(#paint2_radial_1_209)"/>
<path d="M135.812 3.40273C136.457 2.04227 138.393 2.04227 139.038 3.40273L142.639 11.0004C142.899 11.5494 143.42 11.9283 144.023 12.0061L152.361 13.083C153.855 13.2759 154.453 15.117 153.358 16.1507L147.245 21.9232C146.803 22.3403 146.604 22.9534 146.716 23.5504L148.269 31.8137C148.547 33.2934 146.981 34.4312 145.659 33.7096L138.28 29.6795C137.747 29.3884 137.103 29.3884 136.569 29.6795L129.19 33.7096C127.869 34.4312 126.303 33.2933 126.581 31.8137L128.133 23.5504C128.246 22.9534 128.046 22.3403 127.605 21.9232L121.492 16.1507C120.397 15.117 120.995 13.2759 122.488 13.083L130.827 12.0061C131.429 11.9283 131.951 11.5494 132.211 11.0004L135.812 3.40273Z" fill="url(#paint3_radial_1_209)"/>
<path d="M175.074 3.40273C175.719 2.04227 177.655 2.04227 178.299 3.40273L181.9 11.0004C182.161 11.5494 182.682 11.9283 183.285 12.0061L191.623 13.083C193.116 13.2759 193.715 15.117 192.62 16.1507L186.507 21.9232C186.065 22.3403 185.866 22.9534 185.978 23.5504L187.531 31.8137C187.809 33.2934 186.242 34.4312 184.921 33.7096L177.542 29.6795C177.009 29.3884 176.364 29.3884 175.831 29.6795L168.452 33.7096C167.131 34.4312 165.565 33.2933 165.843 31.8137L167.395 23.5504C167.507 22.9534 167.308 22.3403 166.866 21.9232L160.753 16.1507C159.659 15.117 160.257 13.2759 161.75 13.083L170.089 12.0061C170.691 11.9283 171.213 11.5494 171.473 11.0004L175.074 3.40273Z" fill="url(#paint4_radial_1_209)"/>
<defs>
<radialGradient id="paint0_radial_1_209" cx="0" cy="0" r="1" gradientUnits="userSpaceOnUse" gradientTransform="translate(19.6319 19.6319) rotate(90) scale(19.6319)">
<stop stop-color="#FFDF6C"/>
<stop offset="1" stop-color="#FFB800"/>
</radialGradient>
<radialGradient id="paint1_radial_1_209" cx="0" cy="0" r="1" gradientUnits="userSpaceOnUse" gradientTransform="translate(58.8976 19.6319) rotate(90) scale(19.6319)">
<stop stop-color="#FFDF6C"/>
<stop offset="1" stop-color="#FFB800"/>
</radialGradient>
<radialGradient id="paint2_radial_1_209" cx="0" cy="0" r="1" gradientUnits="userSpaceOnUse" gradientTransform="translate(98.1593 19.6319) rotate(90) scale(19.6319)">
<stop stop-color="#FFDF6C"/>
<stop offset="1" stop-color="#FFB800"/>
</radialGradient>
<radialGradient id="paint3_radial_1_209" cx="0" cy="0" r="1" gradientUnits="userSpaceOnUse" gradientTransform="translate(137.425 19.6319) rotate(90) scale(19.6319)">
<stop stop-color="#FFDF6C"/>
<stop offset="1" stop-color="#FFB800"/>
</radialGradient>
<radialGradient id="paint4_radial_1_209" cx="0" cy="0" r="1" gradientUnits="userSpaceOnUse" gradientTransform="translate(176.687 19.6319) rotate(90) scale(19.6319)">
<stop stop-color="#FFDF6C"/>
<stop offset="1" stop-color="#FFB800"/>
</radialGradient>
</defs>
</svg>
