<svg width="362" height="145" viewBox="0 0 362 145" fill="none" xmlns="http://www.w3.org/2000/svg">
<path d="M98.7294 31.2357V104H85.2161V42.5661H69.8316V31.2357H98.7294ZM146.22 59.094C151.001 59.094 155.298 60.0296 159.109 61.9006C162.921 63.7024 165.901 66.3011 168.049 69.6968C170.197 73.0925 171.271 77.0079 171.271 81.4431C171.271 86.1554 170.093 90.3134 167.737 93.9169C165.381 97.4512 162.193 100.189 158.174 102.129C154.154 104.069 149.65 105.039 144.66 105.039C134.681 105.039 126.92 101.921 121.376 95.6841C115.901 89.4471 113.164 80.5075 113.164 68.8652C113.164 60.6879 114.654 53.7233 117.634 47.9715C120.613 42.1503 124.771 37.7498 130.107 34.7699C135.513 31.7208 141.75 30.1962 148.818 30.1962C152.56 30.1962 156.06 30.612 159.317 31.4436C162.643 32.2059 165.519 33.3493 167.945 34.8739L162.955 45.0609C159.352 42.7047 154.743 41.5266 149.13 41.5266C142.131 41.5266 136.656 43.6749 132.706 47.9715C128.756 52.268 126.781 58.4703 126.781 66.5783V66.6823C128.929 64.1875 131.667 62.3164 134.993 61.069C138.319 59.7524 142.062 59.094 146.22 59.094ZM143.933 94.4367C148.16 94.4367 151.59 93.3279 154.224 91.1103C156.857 88.8234 158.174 85.8089 158.174 82.0668C158.174 78.2553 156.857 75.2408 154.224 73.0232C151.59 70.8056 148.056 69.6968 143.621 69.6968C139.255 69.6968 135.686 70.8749 132.914 73.2311C130.211 75.5873 128.86 78.5671 128.86 82.1707C128.86 85.705 130.177 88.6502 132.81 91.0064C135.513 93.2932 139.22 94.4367 143.933 94.4367ZM208.688 105.039C202.867 105.039 197.669 103.584 193.096 100.674C188.522 97.6938 184.918 93.3972 182.285 87.7839C179.652 82.1014 178.335 75.3794 178.335 67.6178C178.335 59.8563 179.652 53.1689 182.285 47.5557C184.918 41.8731 188.522 37.5766 193.096 34.666C197.669 31.6861 202.867 30.1962 208.688 30.1962C214.509 30.1962 219.707 31.6861 224.28 34.666C228.923 37.5766 232.562 41.8731 235.195 47.5557C237.828 53.1689 239.145 59.8563 239.145 67.6178C239.145 75.3794 237.828 82.1014 235.195 87.7839C232.562 93.3972 228.923 97.6938 224.28 100.674C219.707 103.584 214.509 105.039 208.688 105.039ZM208.688 93.2932C213.885 93.2932 217.974 91.145 220.954 86.8484C224.003 82.5518 225.528 76.1417 225.528 67.6178C225.528 59.094 224.003 52.6838 220.954 48.3873C217.974 44.0907 213.885 41.9424 208.688 41.9424C203.56 41.9424 199.471 44.0907 196.422 48.3873C193.442 52.6838 191.952 59.094 191.952 67.6178C191.952 76.1417 193.442 82.5518 196.422 86.8484C199.471 91.145 203.56 93.2932 208.688 93.2932ZM298.888 72.8153H280.489V91.0064H269.367V72.8153H250.968V62.4204H269.367V44.2293H280.489V62.4204H298.888V72.8153Z" fill="black"/>
<path d="M327.183 3.39161C328.508 4.65149 329.102 6.45697 329.258 7.97103C329.404 9.50042 329.214 10.6727 329.214 10.6727C329.214 10.6727 328.024 10.7888 326.576 10.631C325.112 10.4798 323.328 10.1534 322.136 9.01399C320.89 7.94035 319.788 5.72295 318.823 3.83202C317.866 1.94766 317.176 0.262695 317.176 0.262695C317.176 0.262695 318.931 0.387586 321.118 0.830191C323.291 1.26841 325.8 2.19745 327.183 3.39161Z" fill="#0CBB65"/>
<path d="M327.449 12.3664C328.255 12.4234 329.042 12.7346 329.765 13.1706C330.453 13.6373 331.077 14.2245 331.601 14.8008C332.125 15.3748 332.548 15.9358 332.837 16.3521C333.106 16.7837 333.249 17.0664 333.249 17.0664C333.249 17.0664 332.497 17.9406 331.349 18.7382C330.188 19.5489 328.698 20.2435 327.125 20.0923C325.54 19.9455 323.599 18.7842 321.875 17.8705C320.24 16.8714 318.875 16.0388 318.875 16.0388C318.875 16.0388 324.219 12.0794 327.449 12.3664Z" fill="#0CBB65"/>
<path d="M334.071 20.4124C335.662 20.7432 336.931 22.1434 337.846 23.3989C338.71 24.6916 339.13 25.8924 339.13 25.8924C339.13 25.8924 338.269 26.6505 337.018 27.2815C335.769 27.9148 334.137 28.4275 332.651 28.0287C331.192 27.608 329.257 26.2999 327.789 25.0816C326.22 23.9269 325.072 22.8533 325.072 22.8533C325.072 22.8533 330.839 19.7331 334.071 20.4124Z" fill="#0CBB65"/>
<path d="M339.473 29.3217C340.945 29.8979 342.17 31.3835 342.786 32.8099C343.45 34.2166 343.741 35.4436 343.741 35.4436C343.741 35.4436 342.786 36.0703 341.458 36.5195C340.133 36.9708 338.437 37.2513 336.997 36.6597C336.278 36.3617 335.518 35.8052 334.791 35.1434C334.008 34.5058 333.248 33.7696 332.591 33.0685C331.951 32.3586 331.342 31.7209 330.899 31.2586C330.474 30.7853 330.209 30.4895 330.209 30.4895C330.209 30.4895 331.747 29.9089 333.684 29.4707C335.614 29.0324 337.994 28.741 339.473 29.3217Z" fill="#0CBB65"/>
<path d="M343.574 38.8962C345.04 39.6456 345.893 41.335 346.364 42.8162C346.881 44.2864 346.933 45.5594 346.933 45.5594C346.933 45.5594 345.89 46.048 344.514 46.3044C343.127 46.5673 341.469 46.5914 340.115 45.8048C338.708 45.0292 337.448 43.1667 336.236 41.6351C335.662 40.8573 335.18 40.1298 334.845 39.5952C334.483 39.0715 334.258 38.7429 334.258 38.7429C334.258 38.7429 335.87 38.3813 337.86 38.2148C339.821 38.057 342.141 38.1294 343.574 38.8962Z" fill="#0CBB65"/>
<path d="M346.311 48.9474C347.624 49.9027 348.204 51.6994 348.518 53.2223C348.789 54.7538 348.664 56.0225 348.664 56.0225C348.664 56.0225 347.567 56.3599 346.169 56.4213C344.771 56.4848 343.073 56.2811 341.887 55.306C340.715 54.3244 339.503 52.3371 338.666 50.6236C337.709 48.9299 337.1 47.4815 337.1 47.4815C337.1 47.4815 343.64 46.9995 346.311 48.9474Z" fill="#0CBB65"/>
<path d="M347.577 59.2894C348.686 60.42 349.142 62.2803 349.166 63.8316C349.162 65.3851 348.899 66.6253 348.899 66.6253C348.899 66.6253 347.766 66.8071 346.372 66.6735C344.979 66.5442 343.325 66.106 342.282 64.9753C341.3 63.8403 340.391 61.6996 339.764 59.8788C339.486 58.9651 339.146 58.1369 338.955 57.53C338.767 56.923 338.646 56.5439 338.646 56.5439C338.646 56.5439 340.288 56.6491 342.229 57.0457C344.153 57.4401 346.469 58.15 347.577 59.2894Z" fill="#0CBB65"/>
<path d="M347.421 69.7145C348.357 70.9875 348.453 72.8784 348.317 74.4275C348.223 75.9854 347.726 77.1642 347.726 77.1642C347.726 77.1642 346.571 77.184 345.213 76.8575C343.839 76.531 342.32 75.8802 341.411 74.6116C340.469 73.332 339.908 71.0949 339.594 69.2171C339.147 67.3218 338.904 65.7529 338.904 65.7529C338.904 65.7529 345.357 67.1048 347.421 69.7145Z" fill="#0CBB65"/>
<path d="M345.748 79.9975C346.149 80.7008 346.355 81.5334 346.381 82.3748C346.365 83.2031 346.214 84.0466 346.017 84.7982C345.625 86.3035 345.062 87.4319 345.062 87.4319C345.062 87.4319 343.929 87.2939 342.625 86.779C341.322 86.2662 339.843 85.3832 339.12 83.9984C337.86 81.2311 337.967 74.9141 337.967 74.9141C337.967 74.9141 344.124 77.1359 345.748 79.9975Z" fill="#0CBB65"/>
<path d="M342.693 89.9517C343.248 91.4372 342.952 93.3413 342.319 94.7568C341.683 96.1744 340.94 97.1999 340.94 97.1999C340.94 97.1999 339.834 96.8997 338.618 96.2073C337.402 95.5171 336.069 94.4369 335.576 92.9776C335.316 92.2414 335.292 91.3299 335.25 90.3242C335.2 89.3141 335.243 88.2536 335.322 87.2961C335.397 86.3342 335.535 85.4818 335.605 84.8508C335.658 84.2132 335.69 83.8144 335.69 83.8144C335.69 83.8144 341.595 86.9279 342.693 89.9517Z" fill="#0CBB65"/>
<path d="M338.299 99.3951C338.639 100.946 337.964 102.719 337.215 104.082C336.86 104.776 336.411 105.32 336.076 105.703C335.732 106.078 335.517 106.312 335.517 106.312C335.517 106.312 334.458 105.859 333.352 105.002C332.245 104.148 331.084 102.899 330.823 101.398C330.539 99.875 330.887 97.5677 331.369 95.7272C331.639 94.8179 331.752 93.9151 331.921 93.306C332.079 92.6903 332.178 92.3047 332.178 92.3047C332.178 92.3047 333.512 93.2666 334.949 94.6404C336.371 95.9989 337.966 97.8394 338.299 99.3951Z" fill="#0CBB65"/>
<path d="M332.582 108.107C332.807 109.772 331.769 111.337 330.842 112.584C330.364 113.197 329.882 113.708 329.523 114.062C329.172 114.426 328.903 114.602 328.903 114.602C328.903 114.602 327.915 114.001 326.94 113C325.965 112.003 325.012 110.622 324.893 109.038C324.77 107.445 325.588 105.329 326.245 103.512C326.87 101.665 327.544 100.243 327.544 100.243C327.544 100.243 332.255 104.814 332.582 108.107Z" fill="#0CBB65"/>
<path d="M331.004 9.01204C331.041 9.84904 331.324 10.6641 331.725 11.4245C332.091 12.2154 332.577 12.9473 333.066 13.5761C333.554 14.205 334.043 14.7308 334.413 15.1011C334.77 15.478 334.994 15.7146 334.994 15.7146C334.994 15.7146 336.028 15.2216 337.093 14.3123C338.14 13.4118 339.278 12.038 339.251 10.3201C339.218 8.61764 338.162 5.91162 336.861 3.80815C336.232 2.74108 335.618 1.75946 335.13 1.08022C334.619 0.416311 334.299 0 334.299 0C334.299 0 330.91 5.67498 331.004 9.01204Z" fill="#0CBB65"/>
<path d="M338.056 17.5885C337.909 19.2472 338.632 21.0373 339.463 22.3958C340.239 23.785 341.04 24.8017 341.04 24.8017C341.04 24.8017 342.138 24.4555 343.319 23.7039C344.498 22.9502 345.756 21.7823 346.016 20.0491C346.31 18.3028 345.467 15.5858 344.581 13.2479C343.602 10.9779 342.57 9.12207 342.57 9.12207C342.57 9.12207 338.354 14.3238 338.056 17.5885Z" fill="#0CBB65"/>
<path d="M343.815 27.0825C343.381 28.7324 344.012 30.5291 344.529 32.041C345.092 33.5309 345.789 34.6309 345.789 34.6309C345.789 34.6309 346.928 34.4402 348.201 33.864C349.472 33.2833 350.874 32.3083 351.354 30.6387C351.593 29.8038 351.637 28.6732 351.56 27.4353C351.429 26.2258 351.168 24.9155 350.879 23.7038C350.607 22.4812 350.241 21.3966 349.945 20.6143C349.647 19.8299 349.461 19.3369 349.461 19.3369C349.461 19.3369 348.245 20.4807 346.937 22.0144C345.625 23.5526 344.246 25.4392 343.815 27.0825Z" fill="#0CBB65"/>
<path d="M348.188 37.2927C347.616 38.8352 347.837 40.7481 348.199 42.3016C348.606 43.8397 349.077 45.0426 349.077 45.0426C349.077 45.0426 350.223 45.0185 351.569 44.6241C352.899 44.2319 354.485 43.4497 355.182 41.8677C355.83 40.3055 356.008 37.3891 355.664 34.9394C355.526 33.7058 355.346 32.5664 355.199 31.736C355.031 30.9143 354.884 30.4082 354.884 30.4082C354.884 30.4082 353.525 31.3679 352.029 32.6957C350.502 34.0411 348.797 35.7436 348.188 37.2927Z" fill="#0CBB65"/>
<path d="M351.105 48.0094C350.288 49.4621 350.209 51.3925 350.408 52.9723C350.562 54.5542 350.858 55.8141 350.858 55.8141C350.858 55.8141 351.999 55.95 353.384 55.7506C354.769 55.549 356.397 55.0012 357.352 53.5288C358.325 52.0608 358.684 49.2342 358.838 46.7364C358.875 44.2626 358.693 42.1416 358.693 42.1416C358.693 42.1416 352.716 45.1566 351.105 48.0094Z" fill="#0CBB65"/>
<path d="M352.457 59.0304C351.388 60.356 351.173 62.2535 351.074 63.8443C350.945 65.4328 351.103 66.7212 351.103 66.7212C351.103 66.7212 352.216 67.0148 353.616 67.0082C355.014 66.9995 356.701 66.6839 357.849 65.3583C359.059 64.0393 359.821 61.2982 360.286 58.8507C360.555 57.6281 360.617 56.4909 360.693 55.6539C360.746 54.8169 360.781 54.291 360.781 54.291C360.781 54.291 359.201 54.8322 357.376 55.6933C355.529 56.5588 353.526 57.7113 352.457 59.0304Z" fill="#0CBB65"/>
<path d="M352.29 70.1331C351.043 71.2988 350.469 73.1349 350.204 74.706C349.982 76.2814 349.893 77.5676 349.893 77.5676C349.893 77.5676 350.946 78.0123 352.336 78.2008C353.709 78.3848 355.484 78.3169 356.773 77.1578C358.026 76.0009 359.207 73.3913 360.062 71.0359C360.785 68.6738 361.135 66.5879 361.135 66.5879C361.135 66.5879 354.588 67.8346 352.29 70.1331Z" fill="#0CBB65"/>
<path d="M350.507 81.0969C349.837 81.5921 349.342 82.2867 348.919 83.0383C348.456 83.7788 348.106 84.5874 347.845 85.3389C347.323 86.842 347.15 88.1348 347.15 88.1348C347.15 88.1348 348.145 88.7286 349.488 89.1098C350.834 89.4889 352.532 89.651 353.969 88.6825C355.363 87.7097 357.118 85.3499 358.088 83.0843C359.149 80.845 359.865 78.8379 359.865 78.8379C359.865 78.8379 353.163 79.1512 350.507 81.0969Z" fill="#0CBB65"/>
<path d="M347.251 91.7111C345.737 92.4867 344.814 94.1498 344.052 95.5521C343.289 96.95 342.908 98.1924 342.908 98.1924C342.908 98.1924 343.804 98.9154 345.082 99.4851C346.361 100.05 348.027 100.454 349.613 99.7108C350.391 99.3339 351.329 98.6437 352.148 97.7432C352.959 96.8382 353.763 95.7712 354.471 94.7457C355.172 93.7203 355.807 92.7474 356.213 92.0134C356.583 91.2619 356.813 90.7908 356.813 90.7908C356.813 90.7908 350.259 90.1992 347.251 91.7111Z" fill="#0CBB65"/>
<path d="M342.567 101.779C340.961 102.334 339.696 103.782 338.822 105.112C338.399 105.787 338.018 106.392 337.74 106.832C337.488 107.288 337.33 107.571 337.33 107.571C337.33 107.571 338.112 108.41 339.298 109.153C340.485 109.893 342.087 110.531 343.781 110.033C345.448 109.525 347.536 107.595 349.28 105.796C350.181 104.913 350.801 103.962 351.318 103.3C351.805 102.616 352.111 102.187 352.111 102.187C352.111 102.187 350.488 101.806 348.489 101.565C346.471 101.317 344.173 101.23 342.567 101.779Z" fill="#0CBB65"/>
<path d="M336.473 111.063C334.911 111.47 333.335 112.629 332.288 113.826C331.749 114.413 331.313 114.985 331.01 115.412C330.708 115.837 330.52 116.1 330.52 116.1C330.52 116.1 331.172 117.038 332.246 117.938C333.322 118.839 334.838 119.713 336.519 119.398C338.186 119.082 340.671 117.586 342.573 115.988C344.437 114.369 345.895 112.822 345.895 112.822C345.895 112.822 339.667 110.364 336.473 111.063Z" fill="#0CBB65"/>
<path d="M325.695 115.923C325.638 117.555 324.545 119.12 323.371 120.137C322.229 121.193 321.147 121.843 321.147 121.843C321.147 121.843 320.261 121.123 319.433 119.992C318.603 118.864 317.823 117.332 317.956 115.778C318.09 114.218 319.205 112.255 320.058 110.489C320.511 109.632 320.96 108.883 321.298 108.346C321.637 107.812 321.85 107.479 321.85 107.479C321.85 107.479 322.869 108.776 323.846 110.472C324.828 112.17 325.768 114.302 325.695 115.923Z" fill="#0CBB65"/>
<path d="M317.806 122.728C317.486 124.286 316.2 125.706 314.933 126.602C313.638 127.461 312.462 127.93 312.462 127.93C312.462 127.93 311.681 127.089 311.02 125.855C310.356 124.624 309.802 123.004 310.163 121.508C310.566 120.066 311.82 118.096 312.976 116.558C314.177 115.073 315.139 113.793 315.139 113.793C315.139 113.793 315.969 115.222 316.728 117.071C317.508 118.94 318.121 121.151 317.806 122.728Z" fill="#0CBB65"/>
<path d="M309.064 128.395C308.525 129.885 307.008 131.022 305.648 131.776C304.973 132.166 304.322 132.427 303.827 132.558C303.336 132.692 303.029 132.773 303.029 132.773C303.029 132.773 302.374 131.824 301.892 130.511C301.408 129.201 301.09 127.527 301.669 126.123C302.219 124.646 303.757 122.913 305.142 121.607C305.838 120.956 306.426 120.268 306.892 119.841C307.355 119.405 307.644 119.131 307.644 119.131C307.644 119.131 308.262 120.656 308.748 122.58C309.235 124.493 309.59 126.87 309.064 128.395Z" fill="#0CBB65"/>
<path d="M299.585 132.718C298.889 134.245 297.193 135.054 295.733 135.584C294.265 136.103 293.019 136.27 293.019 136.27C293.019 136.27 292.508 135.251 292.214 133.881C291.919 132.512 291.835 130.787 292.585 129.409C293.325 127.989 295.159 126.692 296.662 125.456C298.174 124.234 299.502 123.395 299.502 123.395C299.502 123.395 301.062 129.764 299.585 132.718Z" fill="#0CBB65"/>
<path d="M329.134 119.394C327.482 119.532 325.916 120.621 324.627 121.57C323.378 122.556 322.539 123.553 322.539 123.553C322.539 123.553 323.065 124.582 323.998 125.621C324.934 126.66 326.288 127.7 328.023 127.654C331.604 127.746 338.262 122.497 338.262 122.497C338.262 122.497 336.812 121.684 334.936 120.875C333.059 120.073 330.793 119.273 329.134 119.394Z" fill="#0CBB65"/>
<path d="M320.731 126.642C319.042 126.497 317.348 127.38 315.981 128.195C314.59 128.971 313.604 129.817 313.604 129.817C313.604 129.817 313.976 130.906 314.758 132.067C315.54 133.226 316.739 134.455 318.479 134.672C320.251 134.953 322.94 134.037 325.227 133.053C327.557 132.128 329.305 130.947 329.305 130.947C329.305 130.947 327.982 129.941 326.264 128.914C324.561 127.912 322.405 126.775 320.731 126.642Z" fill="#0CBB65"/>
<path d="M311.41 132.681C309.752 132.293 307.909 132.843 306.458 133.5C305.744 133.851 305.1 134.166 304.633 134.396C304.177 134.646 303.893 134.802 303.893 134.802C303.893 134.802 304.107 135.928 304.719 137.188C305.332 138.448 306.349 139.839 308.051 140.325C309.717 140.744 312.53 140.255 314.964 139.655C316.183 139.361 317.221 138.901 318.012 138.614C318.79 138.296 319.276 138.097 319.276 138.097C319.276 138.097 314.62 133.36 311.41 132.681Z" fill="#0CBB65"/>
<path d="M301.305 137.291C299.765 136.8 297.828 136.984 296.292 137.407C294.756 137.819 293.586 138.399 293.586 138.399C293.586 138.399 293.643 139.558 294.07 140.888C294.498 142.218 295.304 143.717 296.901 144.368C298.479 144.981 301.404 145.095 303.847 144.705C306.294 144.333 308.354 143.805 308.354 143.805C308.354 143.805 304.386 138.406 301.305 137.291Z" fill="#0CBB65"/>
<path d="M39.0018 9.01423C37.812 10.1514 36.0284 10.4801 34.5626 10.6313C33.1143 10.789 31.9245 10.6729 31.9245 10.6729C31.9245 10.6729 31.7317 9.50066 31.8807 7.97126C32.0362 6.45721 32.63 4.65173 33.9556 3.39184C35.336 2.19549 37.8449 1.26865 40.0206 0.830426C42.2074 0.387822 43.9624 0.262931 43.9624 0.262931C43.9624 0.262931 43.2722 1.9479 42.3147 3.83225C41.3506 5.72318 40.2485 7.94277 39.0018 9.01423Z" fill="#0CBB65"/>
<path d="M30.1322 9.01204C30.0949 9.84904 29.8123 10.6641 29.4113 11.4245C29.0454 12.2154 28.5589 12.9473 28.0703 13.5761C27.5817 14.205 27.0931 14.7308 26.7228 15.1011C26.3656 15.478 26.1421 15.7146 26.1421 15.7146C26.1421 15.7146 25.1079 15.2216 24.0431 14.3123C22.9957 13.4118 21.8585 12.038 21.887 10.3201C21.9199 8.61764 22.976 5.91162 24.2775 3.80815C24.9064 2.74108 25.5199 1.75946 26.0085 1.08022C26.519 0.416311 26.8389 0 26.8389 0C26.8389 0 30.2264 5.67498 30.1322 9.01204Z" fill="#0CBB65"/>
<path d="M23.0784 17.5885C23.2252 19.2472 22.5021 21.0373 21.6717 22.3958C20.896 23.785 20.0941 24.8017 20.0941 24.8017C20.0941 24.8017 18.9963 24.4555 17.8153 23.7039C16.6365 22.9502 15.3788 21.7823 15.1181 20.0491C14.8244 18.3028 15.668 15.5858 16.5532 13.2479C17.5327 10.9779 18.5647 9.12207 18.5647 9.12207C18.5647 9.12207 22.7804 14.3238 23.0784 17.5885Z" fill="#0CBB65"/>
<path d="M17.3211 27.0825C17.7549 28.7324 17.1239 30.5291 16.6068 32.041C16.0437 33.5309 15.3469 34.6309 15.3469 34.6309C15.3469 34.6309 14.2075 34.4402 12.9345 33.864C11.6636 33.2833 10.2613 32.3083 9.78148 30.6387C9.54265 29.8038 9.49882 28.6732 9.57551 27.4353C9.70698 26.2258 9.96772 24.9155 10.2569 23.7038C10.5286 22.4812 10.8968 21.3966 11.1904 20.6143C11.4884 19.8299 11.6746 19.3369 11.6746 19.3369C11.6746 19.3369 12.8907 20.4807 14.1988 22.0144C15.5112 23.5526 16.8894 25.4392 17.3211 27.0825Z" fill="#0CBB65"/>
<path d="M12.9476 37.2927C13.5195 38.8352 13.2982 40.7481 12.9366 42.3016C12.5291 43.8397 12.058 45.0426 12.058 45.0426C12.058 45.0426 10.912 45.0185 9.5667 44.6241C8.2367 44.2319 6.65034 43.4497 5.95357 41.8677C5.305 40.3055 5.12751 37.3891 5.46933 34.9394C5.60737 33.7058 5.78704 32.5664 5.93385 31.736C6.10256 30.9143 6.24717 30.4082 6.24717 30.4082C6.24717 30.4082 7.60566 31.3679 9.10438 32.6957C10.6338 34.0411 12.3385 35.7436 12.9476 37.2927Z" fill="#0CBB65"/>
<path d="M10.0304 48.0094C10.8477 49.4621 10.9266 51.3925 10.7272 52.9723C10.5738 54.5542 10.278 55.8141 10.278 55.8141C10.278 55.8141 9.13645 55.95 7.75167 55.7506C6.36689 55.549 4.73889 55.0012 3.78356 53.5288C2.81071 52.0608 2.45137 49.2342 2.298 46.7364C2.26075 44.2626 2.44261 42.1416 2.44261 42.1416C2.44261 42.1416 8.41996 45.1566 10.0304 48.0094Z" fill="#0CBB65"/>
<path d="M8.6795 59.0304C9.74876 60.356 9.96349 62.2535 10.0621 63.8443C10.1914 65.4328 10.0336 66.7212 10.0336 66.7212C10.0336 66.7212 8.92052 67.0148 7.5204 67.0082C6.12028 66.9995 4.43532 66.6839 3.28718 65.3583C2.07768 64.0393 1.31299 61.2982 0.850662 58.8507C0.581155 57.6281 0.519802 56.4909 0.443113 55.6539C0.388335 54.8169 0.355467 54.291 0.355467 54.291C0.355467 54.291 1.93526 54.8322 3.76046 55.6933C5.60537 56.5588 7.61024 57.7113 8.6795 59.0304Z" fill="#0CBB65"/>
<path d="M8.84551 70.1331C10.0923 71.2988 10.6663 73.1349 10.9314 74.7059C11.1528 76.2813 11.2426 77.5675 11.2426 77.5675C11.2426 77.5675 10.1865 78.0123 8.7995 78.2008C7.42567 78.3848 5.65087 78.3169 4.3625 77.1578C3.10918 76.0009 1.92817 73.3913 1.07364 71.0358C0.350573 68.6738 0 66.5879 0 66.5879C0 66.5879 6.54704 67.8346 8.84551 70.1331Z" fill="#0CBB65"/>
<path d="M10.6275 81.0969C11.298 81.5921 11.7954 82.2867 12.2161 83.0383C12.6784 83.7788 13.029 84.5874 13.2897 85.3389C13.8112 86.842 13.9865 88.1348 13.9865 88.1348C13.9865 88.1348 12.9917 88.7286 11.6486 89.1098C10.3032 89.4889 8.60513 89.651 7.16777 88.6825C5.77422 87.7097 4.01914 85.3499 3.04848 83.0843C1.98798 80.845 1.27148 78.8379 1.27148 78.8379C1.27148 78.8379 7.97409 79.1512 10.6275 81.0969Z" fill="#0CBB65"/>
<path d="M13.8843 91.7111C15.3983 92.4867 16.3208 94.1498 17.0833 95.5521C17.8458 96.95 18.2271 98.1924 18.2271 98.1924C18.2271 98.1924 17.3309 98.9154 16.0535 99.4851C14.7739 100.05 13.1086 100.454 11.5223 99.7108C10.7444 99.3339 9.80661 98.6437 8.98713 97.7432C8.17642 96.8383 7.37448 95.7712 6.66456 94.7457C5.96341 93.7203 5.32798 92.7474 4.92262 92.0134C4.55233 91.2619 4.32226 90.7908 4.32226 90.7908C4.32226 90.7908 10.8737 90.1992 13.8843 91.7111Z" fill="#0CBB65"/>
<path d="M18.5697 101.779C20.1757 102.334 21.44 103.782 22.3143 105.112C22.7372 105.787 23.1184 106.392 23.3967 106.832C23.6487 107.288 23.8064 107.57 23.8064 107.57C23.8064 107.57 23.0242 108.41 21.8388 109.152C20.6512 109.893 19.0495 110.531 17.3558 110.033C15.6883 109.525 13.6002 107.595 11.8561 105.796C10.9556 104.913 10.3355 103.962 9.81837 103.3C9.33194 102.616 9.02519 102.187 9.02519 102.187C9.02519 102.187 10.6488 101.806 12.6471 101.565C14.6651 101.317 16.9636 101.229 18.5697 101.779Z" fill="#0CBB65"/>
<path d="M24.664 111.063C26.2262 111.47 27.8016 112.629 28.849 113.826C29.388 114.413 29.824 114.985 30.1264 115.412C30.4288 115.837 30.6172 116.1 30.6172 116.1C30.6172 116.1 29.9643 117.038 28.8906 117.938C27.8148 118.839 26.2985 119.713 24.618 119.398C22.9505 119.082 20.4658 117.586 18.5639 115.988C16.6993 114.369 15.2422 112.822 15.2422 112.822C15.2422 112.822 21.4693 110.364 24.664 111.063Z" fill="#0CBB65"/>
<path d="M33.6866 12.3664C32.8803 12.4234 32.0936 12.7346 31.3706 13.1706C30.6826 13.6373 30.0581 14.2245 29.5344 14.8008C29.0108 15.3748 28.5879 15.9358 28.2986 16.3521C28.0291 16.7837 27.8867 17.0664 27.8867 17.0664C27.8867 17.0664 28.6383 17.9406 29.7864 18.7382C30.9477 19.5489 32.4377 20.2435 34.0109 20.0923C35.5972 19.9455 37.5364 18.7842 39.2608 17.8705C40.8932 16.8714 42.2604 16.0388 42.2604 16.0388C42.2604 16.0388 36.9163 12.0794 33.6866 12.3664Z" fill="#0CBB65"/>
<path d="M27.0651 20.4122C25.4744 20.743 24.2057 22.1432 23.2898 23.3987C22.4265 24.6914 22.0059 25.8921 22.0059 25.8921C22.0059 25.8921 22.867 26.6503 24.1159 27.2813C25.3648 27.9145 26.9972 28.4273 28.4828 28.0285C29.9421 27.6078 31.8768 26.2997 33.3449 25.0814C34.9137 23.9267 36.0618 22.8531 36.0618 22.8531C36.0618 22.8531 30.297 19.7329 27.0651 20.4122Z" fill="#0CBB65"/>
<path d="M21.6609 29.3217C20.1906 29.8979 18.9636 31.3835 18.3479 32.8099C17.684 34.2166 17.3926 35.4436 17.3926 35.4436C17.3926 35.4436 18.3479 36.0703 19.6757 36.5195C21.0013 36.9708 22.6973 37.2513 24.1368 36.6597C24.8555 36.3617 25.6158 35.8052 26.3433 35.1435C27.1255 34.5058 27.8858 33.7696 28.5431 33.0685C29.1829 32.3586 29.7921 31.7209 30.2347 31.2586C30.6598 30.7853 30.9249 30.4895 30.9249 30.4895C30.9249 30.4895 29.3867 29.9089 27.4498 29.4707C25.5216 29.0324 23.142 28.741 21.6609 29.3217Z" fill="#0CBB65"/>
<path d="M17.5621 38.8963C16.0962 39.6456 15.2417 41.335 14.7728 42.8162C14.2557 44.2864 14.2031 45.5594 14.2031 45.5594C14.2031 45.5594 15.2461 46.048 16.6221 46.3044C18.0091 46.5673 19.6678 46.5914 21.0219 45.8048C22.4286 45.0292 23.6884 43.1667 24.9001 41.6351C25.4742 40.8573 25.9562 40.1298 26.2915 39.5952C26.653 39.0715 26.8787 38.7429 26.8787 38.7429C26.8787 38.7429 25.266 38.3813 23.2765 38.2148C21.3155 38.0571 18.9951 38.1294 17.5621 38.8963Z" fill="#0CBB65"/>
<path d="M14.8251 48.9472C13.5126 49.9026 12.9319 51.6993 12.6186 53.2221C12.3469 54.7537 12.4718 56.0223 12.4718 56.0223C12.4718 56.0223 13.5695 56.3598 14.9675 56.4211C16.3654 56.4846 18.0635 56.2809 19.2489 55.3058C20.4212 54.3242 21.6328 52.3369 22.4698 50.6234C23.4274 48.9297 24.0365 47.4814 24.0365 47.4814C24.0365 47.4814 17.496 46.9993 14.8251 48.9472Z" fill="#0CBB65"/>
<path d="M13.5593 59.2894C12.4506 60.42 11.9948 62.2803 11.9707 63.8316C11.9751 65.3851 12.238 66.6253 12.238 66.6253C12.238 66.6253 13.3708 66.8071 14.7644 66.6735C16.1579 66.5442 17.8122 66.106 18.8552 64.9753C19.8368 63.8403 20.7461 61.6996 21.3728 59.8788C21.651 58.9651 21.9907 58.1369 22.1813 57.53C22.3697 56.923 22.4902 56.5439 22.4902 56.5439C22.4902 56.5439 20.8491 56.6491 18.9078 57.0457C16.984 57.4401 14.668 58.15 13.5593 59.2894Z" fill="#0CBB65"/>
<path d="M13.7133 69.7145C12.7776 70.9875 12.6812 72.8784 12.8171 74.4275C12.9113 75.9854 13.4087 77.1642 13.4087 77.1642C13.4087 77.1642 14.5634 77.184 15.9219 76.8575C17.2957 76.531 18.8142 75.8802 19.7235 74.6116C20.6656 73.332 21.2266 71.0949 21.5399 69.2171C21.9869 67.3218 22.2301 65.7529 22.2301 65.7529C22.2301 65.7529 15.7773 67.1048 13.7133 69.7145Z" fill="#0CBB65"/>
<path d="M15.3891 79.9974C14.9881 80.7008 14.7822 81.5334 14.7559 82.3748C14.7712 83.203 14.9224 84.0466 15.1196 84.7982C15.514 86.3035 16.0771 87.4319 16.0771 87.4319C16.0771 87.4319 17.2099 87.2938 18.5136 86.7789C19.8173 86.2662 21.2963 85.3832 22.0194 83.9984C23.2793 81.231 23.1719 74.9141 23.1719 74.9141C23.1719 74.9141 17.0127 77.1359 15.3891 79.9974Z" fill="#0CBB65"/>
<path d="M18.4426 89.9517C17.8882 91.4372 18.184 93.3413 18.8173 94.7568C19.4527 96.1744 20.1955 97.1999 20.1955 97.1999C20.1955 97.1999 21.302 96.8997 22.518 96.2073C23.7363 95.5171 25.0663 94.4369 25.5593 92.9776C25.82 92.2414 25.8442 91.3299 25.8858 90.3242C25.9362 89.3141 25.8924 88.2536 25.8135 87.2961C25.739 86.3342 25.6009 85.4818 25.5308 84.8508C25.4782 84.2132 25.4454 83.8144 25.4454 83.8144C25.4454 83.8144 19.5403 86.9279 18.4426 89.9517Z" fill="#0CBB65"/>
<path d="M22.8364 99.3951C22.4968 100.946 23.1716 102.719 23.921 104.082C24.2759 104.776 24.7251 105.32 25.0604 105.703C25.4044 106.078 25.6191 106.312 25.6191 106.312C25.6191 106.312 26.6774 105.859 27.7839 105.002C28.8904 104.148 30.0517 102.899 30.3125 101.398C30.5973 99.875 30.2489 97.5677 29.7669 95.7272C29.4974 94.8179 29.3834 93.9151 29.2125 93.306C29.0548 92.6903 28.9562 92.3047 28.9562 92.3047C28.9562 92.3047 27.6218 93.2666 26.1844 94.6404C24.7646 95.9989 23.1694 97.8394 22.8364 99.3951Z" fill="#0CBB65"/>
<path d="M28.5546 108.107C28.3289 109.772 29.3675 111.337 30.2943 112.584C30.772 113.197 31.254 113.708 31.6133 114.063C31.9639 114.426 32.2334 114.602 32.2334 114.602C32.2334 114.602 33.2216 114.001 34.1967 113C35.1717 112.003 36.1249 110.623 36.2432 109.038C36.3659 107.446 35.5508 105.329 34.8913 103.512C34.2668 101.665 33.5919 100.243 33.5919 100.243C33.5919 100.243 28.881 104.814 28.5546 108.107Z" fill="#0CBB65"/>
<path d="M32.0012 119.394C33.6533 119.532 35.22 120.621 36.5083 121.57C37.7573 122.556 38.5965 123.553 38.5965 123.553C38.5965 123.553 38.0706 124.582 37.1372 125.621C36.2016 126.66 34.8475 127.7 33.1121 127.654C29.5318 127.746 22.873 122.497 22.873 122.497C22.873 122.497 24.3236 121.684 26.1992 120.875C28.0769 120.073 30.3425 119.273 32.0012 119.394Z" fill="#0CBB65"/>
<path d="M40.4041 126.642C42.0934 126.497 43.7872 127.38 45.1544 128.195C46.5458 128.971 47.5318 129.817 47.5318 129.817C47.5318 129.817 47.1593 130.906 46.3771 132.067C45.5948 133.226 44.3963 134.455 42.6565 134.672C40.8817 134.953 38.1954 134.037 35.9057 133.053C33.5766 132.128 31.8281 130.947 31.8281 130.947C31.8281 130.947 33.1515 129.942 34.8693 128.914C36.574 127.913 38.7301 126.776 40.4041 126.642Z" fill="#0CBB65"/>
<path d="M49.7255 132.681C51.3841 132.293 53.2269 132.843 54.6752 133.5C55.3895 133.851 56.0337 134.166 56.5004 134.396C56.9561 134.646 57.241 134.802 57.241 134.802C57.241 134.802 57.0262 135.928 56.4149 137.188C55.8014 138.448 54.7847 139.839 53.0822 140.325C51.417 140.744 48.6036 140.255 46.1693 139.655C44.951 139.361 43.9124 138.901 43.1236 138.614C42.3458 138.296 41.8594 138.097 41.8594 138.097C41.8594 138.097 46.5155 133.36 49.7255 132.681Z" fill="#0CBB65"/>
<path d="M59.8301 137.291C61.3704 136.8 63.3073 136.984 64.8433 137.407C66.3793 137.819 67.5493 138.399 67.5493 138.399C67.5493 138.399 67.4924 139.558 67.0651 140.888C66.6378 142.218 65.8315 143.717 64.2342 144.368C62.6566 144.981 59.7314 145.095 57.2884 144.705C54.8409 144.333 52.7812 143.805 52.7812 143.805C52.7812 143.805 56.7493 138.406 59.8301 137.291Z" fill="#0CBB65"/>
<path d="M35.4416 115.923C35.4986 117.555 36.592 119.12 37.7664 120.137C38.908 121.193 39.9904 121.843 39.9904 121.843C39.9904 121.843 40.8756 121.123 41.7038 119.992C42.5343 118.864 43.3143 117.332 43.1806 115.778C43.047 114.218 41.9317 112.255 41.0794 110.489C40.6258 109.632 40.1766 108.883 39.8392 108.346C39.4996 107.812 39.287 107.479 39.287 107.479C39.287 107.479 38.2682 108.776 37.2909 110.472C36.3093 112.17 35.3671 114.302 35.4416 115.923Z" fill="#0CBB65"/>
<path d="M43.3287 122.728C43.6486 124.286 44.9348 125.706 46.2012 126.602C47.4962 127.461 48.6728 127.93 48.6728 127.93C48.6728 127.93 49.4529 127.089 50.1146 125.855C50.7785 124.624 51.3328 123.004 50.9713 121.508C50.5681 120.066 49.3148 118.096 48.1579 116.558C46.9572 115.073 45.9953 113.793 45.9953 113.793C45.9953 113.793 45.1648 115.222 44.4067 117.071C43.6267 118.94 43.0132 121.151 43.3287 122.728Z" fill="#0CBB65"/>
<path d="M52.071 128.395C52.6101 129.885 54.1263 131.022 55.487 131.776C56.1618 132.166 56.8126 132.427 57.3078 132.558C57.7986 132.692 58.1054 132.773 58.1054 132.773C58.1054 132.773 58.7605 131.824 59.2425 130.511C59.7268 129.201 60.0445 127.527 59.4682 126.123C58.9183 124.646 57.3801 122.913 55.9953 121.607C55.2985 120.956 54.7113 120.268 54.2446 119.841C53.7823 119.405 53.4931 119.131 53.4931 119.131C53.4931 119.131 52.8752 120.656 52.3887 122.58C51.9001 124.493 51.5452 126.87 52.071 128.395Z" fill="#0CBB65"/>
<path d="M61.5515 132.718C62.2482 134.245 63.9442 135.053 65.4034 135.584C66.8715 136.103 68.1182 136.27 68.1182 136.27C68.1182 136.27 68.6288 135.251 68.9224 133.881C69.2182 132.512 69.3014 130.787 68.5521 129.409C67.8115 127.989 65.9775 126.692 64.4744 125.456C62.9625 124.234 61.6347 123.395 61.6347 123.395C61.6347 123.395 60.0747 129.764 61.5515 132.718Z" fill="#0CBB65"/>
</svg>
