<svg width="40" height="41" viewBox="0 0 40 41" fill="none" xmlns="http://www.w3.org/2000/svg">
<path fill-rule="evenodd" clip-rule="evenodd" d="M20 1.5C9.50659 1.5 1 10.0066 1 20.5C1 30.9934 9.50659 39.5 20 39.5C30.4934 39.5 39 30.9934 39 20.5C39 10.0066 30.4934 1.5 20 1.5ZM0 20.5C0 9.45431 8.95431 0.5 20 0.5C31.0457 0.5 40 9.45431 40 20.5C40 31.5457 31.0457 40.5 20 40.5C8.95431 40.5 0 31.5457 0 20.5Z" fill="#E1E1E1"/>
<path d="M13.8658 16.318C13.3623 15.771 13.3809 14.9034 13.9072 14.3802C14.4336 13.8569 15.2684 13.8762 15.7719 14.4232L20 19.0171L24.2281 14.4232C24.7316 13.8762 25.5664 13.8569 26.0928 14.3802C26.6191 14.9034 26.6377 15.771 26.1342 16.318L21.825 21L26.1342 25.682C26.6377 26.229 26.6191 27.0966 26.0928 27.6198C25.5664 28.1431 24.7316 28.1238 24.2281 27.5768L20 22.9829L15.7719 27.5768C15.2684 28.1238 14.4336 28.1431 13.9072 27.6198C13.3809 27.0966 13.3623 26.229 13.8658 25.682L18.175 21L13.8658 16.318Z" fill="#D1D2D3"/>
</svg>
