<svg width="40" height="41" viewBox="0 0 40 41" fill="none" xmlns="http://www.w3.org/2000/svg">
<path d="M0 20.5C0 9.45431 8.95431 0.5 20 0.5C31.0457 0.5 40 9.45431 40 20.5C40 31.5457 31.0457 40.5 20 40.5C8.95431 40.5 0 31.5457 0 20.5Z" fill="#EDF2F6"/>
<path d="M20.5 12.5C17.4593 12.5 15 15.004 15 18.1C15 22.3 20.5 28.5 20.5 28.5C20.5 28.5 26 22.3 26 18.1C26 15.004 23.5407 12.5 20.5 12.5ZM20.5 20.1C19.4157 20.1 18.5357 19.204 18.5357 18.1C18.5357 16.996 19.4157 16.1 20.5 16.1C21.5843 16.1 22.4643 16.996 22.4643 18.1C22.4643 19.204 21.5843 20.1 20.5 20.1Z" fill="#0CBB65"/>
</svg>
