<svg width="22" height="18" viewBox="0 0 22 18" fill="none" xmlns="http://www.w3.org/2000/svg">
<path d="M2 10.125C1.37868 10.125 0.875 9.62132 0.875 9C0.875 8.37868 1.37868 7.875 2 7.875L2 10.125ZM20.7955 8.2045C21.2348 8.64384 21.2348 9.35616 20.7955 9.7955L13.636 16.955C13.1967 17.3943 12.4844 17.3943 12.045 16.955C11.6057 16.5156 11.6057 15.8033 12.045 15.364L18.409 9L12.045 2.63604C11.6057 2.1967 11.6057 1.48439 12.045 1.04505C12.4844 0.605709 13.1967 0.605709 13.636 1.04505L20.7955 8.2045ZM2 7.875L20 7.875V10.125L2 10.125L2 7.875Z" fill="white"/>
</svg>
