<svg width="22" height="18" viewBox="0 0 22 18" fill="none" xmlns="http://www.w3.org/2000/svg">
<path d="M20 10.125C20.6213 10.125 21.125 9.62132 21.125 9C21.125 8.37868 20.6213 7.875 20 7.875V10.125ZM1.2045 8.2045C0.765165 8.64384 0.765165 9.35616 1.2045 9.7955L8.36396 16.955C8.8033 17.3943 9.51561 17.3943 9.95495 16.955C10.3943 16.5156 10.3943 15.8033 9.95495 15.364L3.59099 9L9.95495 2.63604C10.3943 2.1967 10.3943 1.48439 9.95495 1.04505C9.51561 0.605709 8.8033 0.605709 8.36396 1.04505L1.2045 8.2045ZM20 7.875L2 7.875V10.125L20 10.125V7.875Z" fill="white"/>
</svg>
