<svg width="186" height="38" viewBox="0 0 186 38" fill="none" xmlns="http://www.w3.org/2000/svg">
<path d="M17.3058 3.98272C17.7132 2.72902 19.4868 2.72901 19.8942 3.98272L22.4708 11.9115C22.653 12.4722 23.1754 12.8518 23.765 12.8518L32.1019 12.8521C33.4202 12.8522 33.9682 14.539 32.9018 15.3139L26.1572 20.2145C25.6803 20.561 25.4808 21.1752 25.6629 21.7359L28.2389 29.6649C28.6462 30.9186 27.2113 31.9612 26.1448 31.1864L19.3998 26.2863C18.9229 25.9398 18.2771 25.9398 17.8002 26.2863L11.0552 31.1864C9.98873 31.9612 8.55381 30.9186 8.96112 29.6649L11.5371 21.7359C11.7192 21.1752 11.5197 20.561 11.0428 20.2145L4.2982 15.3139C3.23176 14.539 3.77984 12.8522 5.09807 12.8521L13.435 12.8518C14.0245 12.8518 14.547 12.4722 14.7292 11.9115L17.3058 3.98272Z" fill="url(#paint0_linear_7328_91)"/>
<path d="M54.506 3.98272C54.9134 2.72902 56.687 2.72901 57.0944 3.98272L59.671 11.9115C59.8532 12.4722 60.3756 12.8518 60.9652 12.8518L69.3021 12.8521C70.6204 12.8522 71.1684 14.539 70.102 15.3139L63.3574 20.2145C62.8805 20.561 62.681 21.1752 62.8631 21.7359L65.4391 29.6649C65.8464 30.9186 64.4115 31.9612 63.345 31.1864L56.6 26.2863C56.1231 25.9398 55.4773 25.9398 55.0003 26.2863L48.2554 31.1864C47.1889 31.9612 45.754 30.9186 46.1613 29.6649L48.7373 21.7359C48.9194 21.1752 48.7199 20.561 48.2429 20.2145L41.4984 15.3139C40.432 14.539 40.98 12.8522 42.2983 12.8521L50.6352 12.8518C51.2247 12.8518 51.7472 12.4722 51.9294 11.9115L54.506 3.98272Z" fill="url(#paint1_linear_7328_91)"/>
<path d="M91.7057 3.98272C92.1131 2.72902 93.8867 2.72901 94.2941 3.98272L96.8707 11.9115C97.0529 12.4722 97.5754 12.8518 98.1649 12.8518L106.502 12.8521C107.82 12.8522 108.368 14.539 107.302 15.3139L100.557 20.2145C100.08 20.561 99.8807 21.1752 100.063 21.7359L102.639 29.6649C103.046 30.9186 101.611 31.9612 100.545 31.1864L93.7997 26.2863C93.3228 25.9398 92.677 25.9398 92.2001 26.2863L85.4551 31.1864C84.3886 31.9612 82.9537 30.9186 83.361 29.6649L85.937 21.7359C86.1191 21.1752 85.9196 20.561 85.4427 20.2145L78.6981 15.3139C77.6317 14.539 78.1797 12.8522 79.498 12.8521L87.8349 12.8518C88.4244 12.8518 88.9469 12.4722 89.1291 11.9115L91.7057 3.98272Z" fill="url(#paint2_linear_7328_91)"/>
<path d="M128.906 3.98272C129.313 2.72902 131.087 2.72901 131.494 3.98272L134.071 11.9115C134.253 12.4722 134.776 12.8518 135.365 12.8518L143.702 12.8521C145.02 12.8522 145.568 14.539 144.502 15.3139L137.757 20.2145C137.28 20.561 137.081 21.1752 137.263 21.7359L139.839 29.6649C140.246 30.9186 138.811 31.9612 137.745 31.1864L131 26.2863C130.523 25.9398 129.877 25.9398 129.4 26.2863L122.655 31.1864C121.589 31.9612 120.154 30.9186 120.561 29.6649L123.137 21.7359C123.319 21.1752 123.12 20.561 122.643 20.2145L115.898 15.3139C114.832 14.539 115.38 12.8522 116.698 12.8521L125.035 12.8518C125.625 12.8518 126.147 12.4722 126.329 11.9115L128.906 3.98272Z" fill="url(#paint3_linear_7328_91)"/>
<path d="M166.106 3.98272C166.513 2.72902 168.287 2.72901 168.694 3.98272L171.271 11.9115C171.453 12.4722 171.975 12.8518 172.565 12.8518L180.902 12.8521C182.22 12.8522 182.768 14.539 181.702 15.3139L174.957 20.2145C174.48 20.561 174.281 21.1752 174.463 21.7359L177.039 29.6649C177.446 30.9186 176.011 31.9612 174.945 31.1864L168.2 26.2863C167.723 25.9398 167.077 25.9398 166.6 26.2863L159.855 31.1864C158.789 31.9612 157.354 30.9186 157.761 29.6649L160.337 21.7359C160.519 21.1752 160.319 20.561 159.843 20.2145L153.098 15.3139C152.032 14.539 152.58 12.8522 153.898 12.8521L162.235 12.8518C162.824 12.8518 163.347 12.4722 163.529 11.9115L166.106 3.98272Z" fill="url(#paint4_linear_7328_91)"/>
<defs>
<linearGradient id="paint0_linear_7328_91" x1="18.6" y1="0" x2="18.6" y2="37.2" gradientUnits="userSpaceOnUse">
<stop stop-color="#FFDEAE"/>
<stop offset="0.567222" stop-color="#EEC78F"/>
<stop offset="1" stop-color="#C49660"/>
</linearGradient>
<linearGradient id="paint1_linear_7328_91" x1="55.8002" y1="0" x2="55.8002" y2="37.2" gradientUnits="userSpaceOnUse">
<stop stop-color="#FFDEAE"/>
<stop offset="0.567222" stop-color="#EEC78F"/>
<stop offset="1" stop-color="#C49660"/>
</linearGradient>
<linearGradient id="paint2_linear_7328_91" x1="92.9999" y1="0" x2="92.9999" y2="37.2" gradientUnits="userSpaceOnUse">
<stop stop-color="#FFDEAE"/>
<stop offset="0.567222" stop-color="#EEC78F"/>
<stop offset="1" stop-color="#C49660"/>
</linearGradient>
<linearGradient id="paint3_linear_7328_91" x1="130.2" y1="0" x2="130.2" y2="37.2" gradientUnits="userSpaceOnUse">
<stop stop-color="#FFDEAE"/>
<stop offset="0.567222" stop-color="#EEC78F"/>
<stop offset="1" stop-color="#C49660"/>
</linearGradient>
<linearGradient id="paint4_linear_7328_91" x1="167.4" y1="0" x2="167.4" y2="37.2" gradientUnits="userSpaceOnUse">
<stop stop-color="#FFDEAE"/>
<stop offset="0.567222" stop-color="#EEC78F"/>
<stop offset="1" stop-color="#C49660"/>
</linearGradient>
</defs>
</svg>
