<svg width="37" height="36" viewBox="0 0 37 36" fill="none" xmlns="http://www.w3.org/2000/svg">
<g clip-path="url(#clip0_5558_494)">
<circle cx="18.5497" cy="17.6901" r="17.6901" fill="#5281B8"/>
<path d="M19.1701 23.5297C19.4374 23.4751 19.9186 23.3658 19.9186 22.7104C19.9186 22.7104 19.8651 21.0718 20.6136 20.8533C21.3621 20.6348 22.3244 22.4373 23.3402 23.1473C24.0887 23.6389 24.6768 23.5843 24.6768 23.5843L27.4033 23.5297C27.4033 23.5297 28.7934 23.4204 28.1518 22.2734C28.0984 22.1642 27.6707 21.4541 26.0668 19.9794C24.4094 18.3408 24.6768 18.6139 26.6549 15.8283C27.8845 14.1351 28.4191 13.0973 28.2588 12.715C28.0449 12.3327 27.1895 12.3873 27.1895 12.3873H24.1421C23.8213 12.3873 23.661 12.4419 23.5006 12.715C23.5006 12.715 23.0194 14.0805 22.3779 15.1729C21.0413 17.5215 20.5067 17.6308 20.2393 17.4669C19.7582 17.1938 19.8651 16.156 19.8651 15.446C19.8651 12.9881 20.2393 12.1142 19.1701 11.8957C18.4751 11.7865 16.0158 11.6772 15.2673 12.0596C14.8931 12.2781 14.6792 12.6604 14.8396 12.715C15 12.715 15.4812 12.7696 15.7485 13.0973C16.1762 13.8074 16.2296 17.1938 15.6416 17.5215C14.8396 18.1223 12.808 14.1351 12.3269 12.8242C12.2199 12.4965 12.0596 12.4419 11.6853 12.3327H8.74487C8.42409 12.3327 7.94292 12.3873 8.15678 13.0427C9.60027 16.1014 12.5942 23.5843 17.9939 23.5297H19.1701Z" fill="white"/>
</g>
<defs>
<clipPath id="clip0_5558_494">
<rect width="35.3801" height="35.3801" fill="white" transform="translate(0.859619)"/>
</clipPath>
</defs>
</svg>
