<svg width="21" height="22" viewBox="0 0 21 22" fill="none" xmlns="http://www.w3.org/2000/svg">
<g clip-path="url(#clip0_1_566)">
<path fill-rule="evenodd" clip-rule="evenodd" d="M10.497 0C4.70849 0 0 4.93408 0 10.9999C0 13.4055 0.740531 15.6365 1.99938 17.4474L0.691071 21.5342L4.72694 20.183C6.38689 21.334 8.36781 22 10.503 22C16.2915 22 21 17.0657 21 11.0001C21 4.93428 16.2915 0.000181834 10.503 0.000181834L10.497 0ZM7.56562 5.58746C7.36202 5.07662 7.20772 5.05728 6.89928 5.04414C6.79426 5.03775 6.67722 5.03137 6.54747 5.03137C6.1462 5.03137 5.72664 5.1542 5.47358 5.42577C5.16514 5.75556 4.39986 6.52501 4.39986 8.10297C4.39986 9.68093 5.49831 11.207 5.64635 11.4206C5.80066 11.6338 7.78784 14.9189 10.8733 16.2578C13.2862 17.3054 14.0021 17.2083 14.5513 17.0854C15.3535 16.9044 16.3594 16.2833 16.6125 15.5334C16.8656 14.7831 16.8656 14.1429 16.7914 14.0071C16.7173 13.8713 16.5136 13.7939 16.2051 13.632C15.8967 13.4703 14.397 12.6943 14.1131 12.5908C13.8353 12.481 13.5701 12.5198 13.3604 12.8303C13.0641 13.2635 12.7741 13.7034 12.5395 13.9684C12.3544 14.1754 12.0519 14.2013 11.799 14.0912C11.4595 13.9427 10.5093 13.5932 9.33669 12.5003C8.42948 11.6533 7.81242 10.5993 7.63355 10.2825C7.45451 9.95925 7.61507 9.77145 7.75684 9.59697C7.91115 9.39639 8.0592 9.25422 8.21351 9.0666C8.36782 8.87917 8.45421 8.78207 8.55296 8.56215C8.65798 8.3488 8.58377 8.12888 8.50975 7.96718C8.43573 7.80548 7.81868 6.22752 7.56562 5.58746Z" fill="white"/>
</g>
<defs>
<clipPath id="clip0_1_566">
<rect width="21" height="22" fill="white"/>
</clipPath>
</defs>
</svg>
