<svg width="42" height="42" viewBox="0 0 42 42" fill="none" xmlns="http://www.w3.org/2000/svg">
<path d="M33.9231 42.0002H8.07692C5.93479 42.0002 3.88039 41.1492 2.36568 39.6345C0.850959 38.1198 0 36.0654 0 33.9233V11.3079C0 9.16575 0.850959 7.11135 2.36568 5.59663C3.88039 4.08192 5.93479 3.23096 8.07692 3.23096H33.9231C36.0652 3.23096 38.1196 4.08192 39.6343 5.59663C41.149 7.11135 42 9.16575 42 11.3079V33.9233C42 36.0654 41.149 38.1198 39.6343 39.6345C38.1196 41.1492 36.0652 42.0002 33.9231 42.0002ZM8.07692 6.46173C6.79164 6.46173 5.559 6.9723 4.65018 7.88113C3.74134 8.78996 3.23077 10.0226 3.23077 11.3079V33.9233C3.23077 35.2085 3.74134 36.4412 4.65018 37.35C5.559 38.2588 6.79164 38.7694 8.07692 38.7694H33.9231C35.2084 38.7694 36.441 38.2588 37.3498 37.35C38.2587 36.4412 38.7692 35.2085 38.7692 33.9233V11.3079C38.7692 10.0226 38.2587 8.78996 37.3498 7.88113C36.441 6.9723 35.2084 6.46173 33.9231 6.46173H8.07692Z" fill="#0CBB65"/>
<path d="M33.9226 35.5385H27.4611C27.0327 35.5385 26.6218 35.3683 26.3188 35.0654C26.0159 34.7624 25.8457 34.3515 25.8457 33.9231V27.4616C25.8457 27.0331 26.0159 26.6223 26.3188 26.3193C26.6218 26.0164 27.0327 25.8462 27.4611 25.8462H33.9226C34.3511 25.8462 34.7619 26.0164 35.0649 26.3193C35.3678 26.6223 35.538 27.0331 35.538 27.4616V33.9231C35.538 34.3515 35.3678 34.7624 35.0649 35.0654C34.7619 35.3683 34.3511 35.5385 33.9226 35.5385ZM29.0765 32.3077H32.3072V29.077H29.0765V32.3077Z" fill="#0CBB65"/>
<path d="M40.3846 16.1536H1.61538C1.18696 16.1536 0.776078 15.9834 0.473135 15.6805C0.170192 15.3775 0 14.9667 0 14.5382C0 14.1098 0.170192 13.6989 0.473135 13.396C0.776078 13.093 1.18696 12.9229 1.61538 12.9229H40.3846C40.813 12.9229 41.2239 13.093 41.5269 13.396C41.8298 13.6989 42 14.1098 42 14.5382C42 14.9667 41.8298 15.3775 41.5269 15.6805C41.2239 15.9834 40.813 16.1536 40.3846 16.1536Z" fill="#0CBB65"/>
<path d="M12.924 9.69231C12.4956 9.69231 12.0847 9.52212 11.7817 9.21917C11.4788 8.91623 11.3086 8.50535 11.3086 8.07692V1.61538C11.3086 1.18696 11.4788 0.776078 11.7817 0.473135C12.0847 0.170192 12.4956 0 12.924 0C13.3524 0 13.7633 0.170192 14.0662 0.473135C14.3692 0.776078 14.5394 1.18696 14.5394 1.61538V8.07692C14.5394 8.50535 14.3692 8.91623 14.0662 9.21917C13.7633 9.52212 13.3524 9.69231 12.924 9.69231Z" fill="#0CBB65"/>
<path d="M29.0763 9.69231C28.6479 9.69231 28.237 9.52212 27.9341 9.21917C27.6311 8.91623 27.4609 8.50535 27.4609 8.07692V1.61538C27.4609 1.18696 27.6311 0.776078 27.9341 0.473135C28.237 0.170192 28.6479 0 29.0763 0C29.5047 0 29.9156 0.170192 30.2186 0.473135C30.5215 0.776078 30.6917 1.18696 30.6917 1.61538V8.07692C30.6917 8.50535 30.5215 8.91623 30.2186 9.21917C29.9156 9.52212 29.5047 9.69231 29.0763 9.69231Z" fill="#0CBB65"/>
</svg>
