<svg width="80" height="39" viewBox="0 0 80 39" fill="none" xmlns="http://www.w3.org/2000/svg">
<g opacity="0.3">
<path d="M55.3312 31.9262H29.8078C29.1916 31.9262 28.6914 31.426 28.6914 30.8098C28.6914 30.1935 29.1916 29.6934 29.8078 29.6934H55.3312C55.9475 29.6934 56.4477 30.1935 56.4477 30.8098C56.4477 31.426 55.9475 31.9262 55.3312 31.9262Z" fill="black" stroke="black"/>
<path d="M23.7369 37.9996C19.7714 37.9996 16.5449 34.7754 16.5449 30.8077C16.5449 26.8399 19.7691 23.6157 23.7369 23.6157C27.7001 23.6157 30.9266 26.8399 30.9266 30.8077C30.9266 34.7754 27.7001 37.9996 23.7369 37.9996ZM23.7369 25.8508C21.0016 25.8508 18.7777 28.0747 18.7777 30.8099C18.7777 33.5451 21.0016 35.769 23.7369 35.769C26.4698 35.769 28.6937 33.5451 28.6937 30.8099C28.6937 28.0747 26.4676 25.8508 23.7369 25.8508Z" fill="black" stroke="black"/>
<path d="M61.4068 37.9996C57.4413 37.9996 54.2148 34.7754 54.2148 30.8077C54.2148 26.8399 57.439 23.6157 61.4068 23.6157C65.3745 23.6157 68.5987 26.8399 68.5987 30.8077C68.5987 34.7754 65.3723 37.9996 61.4068 37.9996ZM61.4068 25.8508C58.6716 25.8508 56.4477 28.0747 56.4477 30.8099C56.4477 33.5451 58.6716 35.769 61.4068 35.769C64.142 35.769 66.3659 33.5451 66.3659 30.8099C66.3659 28.0747 64.1398 25.8508 61.4068 25.8508Z" fill="black" stroke="black"/>
<path d="M55.3396 31.9267H29.8117C29.1955 31.9267 28.6953 31.4265 28.6953 30.8103C28.6953 30.194 29.1955 29.6938 29.8117 29.6938H55.3396C55.9559 29.6938 56.456 30.194 56.456 30.8103C56.456 31.4265 55.9559 31.9267 55.3396 31.9267Z" fill="black" stroke="black"/>
<path d="M72.8418 31.9265H67.4763C66.86 31.9265 66.3599 31.4264 66.3599 30.8101C66.3599 30.1939 66.86 29.6937 67.4763 29.6937H72.8418C74.2239 29.6937 75.3827 28.7023 75.5948 27.3358L76.785 19.7152C76.8676 19.1816 76.7358 18.6502 76.4076 18.2192C76.0816 17.7905 75.6105 17.5181 75.0724 17.4511L60.1995 15.6381C59.9852 15.6113 59.782 15.5242 59.6168 15.3858L46.1729 4.08544C45.2865 3.33968 44.1589 2.92883 42.9978 2.92883H21.9668C20.9286 2.92883 19.9752 3.45132 19.4147 4.32658L13.1293 14.1622C12.9886 14.3877 12.7676 14.5529 12.5131 14.6288L4.92145 16.9175C3.79387 17.2569 3.08383 18.3889 3.26469 19.5545L4.32752 26.3623C4.62895 28.2893 6.26338 29.6892 8.21487 29.6892H17.6575C18.2737 29.6892 18.7739 30.1894 18.7739 30.8057C18.7739 31.4219 18.2737 31.9221 17.6575 31.9221H8.2104C5.15143 31.9221 2.58591 29.7294 2.11702 26.7062L1.0542 19.8983C0.703642 17.6387 2.08576 15.4394 4.2717 14.7807L11.4703 12.6104L17.5347 3.12086C18.506 1.60477 20.1627 0.698242 21.9668 0.698242H43.0023C44.6858 0.698242 46.3225 1.29441 47.6108 2.37733L60.8001 13.4633L75.3448 15.2362C76.488 15.3768 77.4972 15.9551 78.1894 16.8728C78.8838 17.7883 79.1674 18.9203 78.991 20.0591L77.8009 27.6797C77.4191 30.1403 75.3314 31.9265 72.8418 31.9265Z" fill="black" stroke="black"/>
<path d="M48.2478 16.5092H22.6418C22.0255 16.5092 21.5254 16.009 21.5254 15.3928C21.5254 14.7765 22.0255 14.2764 22.6418 14.2764H48.2478C48.8641 14.2764 49.3643 14.7765 49.3643 15.3928C49.3643 16.009 48.8641 16.5092 48.2478 16.5092Z" fill="black" stroke="black"/>
</g>
</svg>
