<svg width="80" height="57" viewBox="0 0 80 57" fill="none" xmlns="http://www.w3.org/2000/svg">
<g opacity="0.3">
<path d="M72.3119 29.3058H40.7163C40.0838 29.3058 39.5723 28.7943 39.5723 28.1618V10.5776C39.5723 10.2655 39.6997 9.96801 39.9253 9.75227L49.7724 0.318702C49.9848 0.114406 50.2692 0 50.5634 0H72.3119C72.9444 0 73.456 0.511557 73.456 1.14406V6.76138C73.456 7.39388 72.9444 7.90544 72.3119 7.90544C71.6794 7.90544 71.1679 7.39388 71.1679 6.76138V2.28648H51.0226L41.8604 11.0647V27.0161H71.1679V13.6649C71.1679 13.0324 71.6794 12.5209 72.3119 12.5209C72.9444 12.5209 73.456 13.0324 73.456 13.6649V28.1602C73.456 28.7943 72.9444 29.3058 72.3119 29.3058Z" fill="black"/>
<path d="M72.312 11.3574C72.2385 11.3574 72.1633 11.3508 72.0881 11.3361C72.0162 11.3214 71.9443 11.2985 71.874 11.2707C71.8054 11.2413 71.74 11.207 71.6779 11.1645C71.6142 11.1237 71.5553 11.0763 71.503 11.0223C71.4507 10.97 71.4033 10.9112 71.3608 10.8491C71.32 10.787 71.284 10.72 71.2562 10.6513C71.2268 10.5827 71.2056 10.5108 71.1908 10.4372C71.1761 10.3637 71.168 10.2885 71.168 10.2133C71.168 10.1398 71.1761 10.0646 71.1908 9.99103C71.2056 9.91749 71.2268 9.84558 71.2562 9.77693C71.284 9.70666 71.32 9.64128 71.3608 9.57917C71.4033 9.51707 71.4507 9.45823 71.503 9.4043C71.5553 9.352 71.6142 9.3046 71.6779 9.26211C71.74 9.22125 71.8054 9.18692 71.874 9.15751C71.9443 9.12972 72.0162 9.10684 72.0881 9.09213C72.2368 9.06271 72.3888 9.06271 72.5359 9.09213C72.6095 9.10684 72.6814 9.12972 72.75 9.15751C72.8187 9.18692 72.8857 9.22125 72.9478 9.26211C73.0099 9.3046 73.0687 9.352 73.121 9.4043C73.1733 9.45823 73.2224 9.51707 73.2632 9.57917C73.3041 9.64128 73.34 9.70666 73.3678 9.77693C73.3972 9.84558 73.4201 9.91749 73.4348 9.99103C73.4495 10.0646 73.4561 10.1398 73.4561 10.2133C73.4561 10.2885 73.4495 10.3637 73.4348 10.4372C73.4201 10.5108 73.3972 10.5827 73.3678 10.6513C73.34 10.72 73.3041 10.787 73.2632 10.8491C73.2224 10.9112 73.1733 10.97 73.121 11.0223C73.0687 11.0763 73.0099 11.1237 72.9478 11.1645C72.8857 11.207 72.8187 11.2413 72.75 11.2707C72.6814 11.2985 72.6095 11.3214 72.5359 11.3361C72.4624 11.3508 72.3872 11.3574 72.312 11.3574Z" fill="black"/>
<path d="M65.0634 23.5938H47.9663C47.3338 23.5938 46.8223 23.0822 46.8223 22.4497V13.6699C46.8223 13.3577 46.9497 13.0603 47.1753 12.8445L52.6847 7.56553C52.8972 7.36123 53.1816 7.24683 53.4758 7.24683H65.0634C65.6959 7.24683 66.2075 7.75838 66.2075 8.39088V22.4497C66.2075 23.0822 65.6959 23.5938 65.0634 23.5938ZM49.1104 21.3057H63.9194V9.53494H53.935L49.1087 14.1586V21.3057H49.1104Z" fill="black"/>
<path d="M40.0444 56.2761C39.7437 56.2761 39.4479 56.1535 39.2354 55.9411C39.1831 55.8871 39.1357 55.8299 39.0932 55.7662C39.0524 55.7041 39.0164 55.6387 38.9886 55.5684C38.9592 55.4998 38.938 55.4279 38.9233 55.3543C38.9086 55.2808 38.9004 55.2056 38.9004 55.1321C38.9004 55.0569 38.9086 54.9817 38.9233 54.9081C38.938 54.8346 38.9592 54.7627 38.9886 54.694C39.0164 54.6254 39.0524 54.5584 39.0932 54.4963C39.1357 54.4342 39.1831 54.3753 39.2354 54.323C39.5018 54.0566 39.8957 53.9357 40.2684 54.0092C40.3403 54.0239 40.4122 54.0468 40.4825 54.0746C40.5511 54.104 40.6181 54.1384 40.6802 54.1809C40.7423 54.2217 40.8012 54.2691 40.8535 54.323C40.9058 54.3753 40.9548 54.4342 40.9957 54.4963C41.0365 54.5584 41.0725 54.6254 41.1002 54.694C41.1297 54.7627 41.1509 54.8346 41.1656 54.9081C41.1803 54.9817 41.1885 55.0569 41.1885 55.1321C41.1885 55.4328 41.0659 55.727 40.8535 55.9411C40.8012 55.9934 40.7423 56.0408 40.6802 56.0833C40.6181 56.1241 40.5511 56.1584 40.4825 56.1879C40.4122 56.2156 40.3403 56.2385 40.2684 56.2532C40.1948 56.2679 40.1196 56.2761 40.0444 56.2761Z" fill="black"/>
<path d="M72.0328 56.2763H43.8759C43.2434 56.2763 42.7318 55.7647 42.7318 55.1322C42.7318 54.4997 43.2434 53.9882 43.8759 53.9882H72.0344C74.7622 53.9882 76.9833 51.7687 76.9833 49.0393V48.3561C76.9833 45.6284 74.7638 43.4073 72.0344 43.4073H27.3835C24.6557 43.4073 22.4346 45.6267 22.4346 48.3561V49.0393C22.4346 51.7671 24.6541 53.9882 27.3835 53.9882H36.719C37.3515 53.9882 37.863 54.4997 37.863 55.1322C37.863 55.7647 37.3515 56.2763 36.719 56.2763H27.3835C23.394 56.2763 20.1465 53.0304 20.1465 49.0393V48.3561C20.1465 44.3666 23.3923 41.1191 27.3835 41.1191H72.0328C76.0222 41.1191 79.2697 44.365 79.2697 48.3561V49.0393C79.2697 53.0288 76.0239 56.2763 72.0328 56.2763Z" fill="black"/>
<path d="M72.3139 37.7477H24.7359C24.1034 37.7477 23.5918 37.2361 23.5918 36.6036V32.6942C23.5918 32.387 23.7144 32.0928 23.9334 31.8787L28.5472 27.3466C28.7613 27.1357 29.0489 27.0181 29.3497 27.0181H72.3139C72.9464 27.0181 73.458 27.5296 73.458 28.1621V36.6036C73.458 37.2361 72.9464 37.7477 72.3139 37.7477ZM25.8799 35.4596H71.1699V29.3062H29.8171L25.8799 33.1747V35.4596Z" fill="black"/>
<path d="M24.7345 33.8381C24.4387 33.8381 24.1429 33.7237 23.919 33.4965C23.4761 33.0454 23.4826 32.3214 23.9337 31.8785L27.714 28.1652L10.9454 11.784C10.6234 12.3364 10.2132 12.8365 9.73103 13.2598L21.3089 26.8937C21.7175 27.3758 21.6586 28.0966 21.1781 28.5068C20.696 28.9154 19.9736 28.8566 19.565 28.3761L7.16998 13.7812C6.94443 13.5148 6.85291 13.1617 6.91992 12.8185C6.98693 12.4769 7.20757 12.1844 7.51646 12.0242C8.4791 11.5257 9.17698 10.5974 9.38127 9.53833C9.46136 9.12484 9.76208 8.78979 10.1641 8.66395C10.5662 8.5381 11.0042 8.64433 11.3049 8.93689L30.1476 27.3448C30.3682 27.5589 30.4924 27.8547 30.4924 28.162C30.4924 28.4692 30.3698 28.7634 30.1508 28.9791L25.537 33.5112C25.3131 33.7286 25.0238 33.8381 24.7345 33.8381Z" fill="black"/>
<path d="M8.0765 34.0651H4.46946C3.8533 34.0651 3.34664 33.5764 3.3254 32.9602L2.63733 13.1206C2.62425 12.7186 2.82201 12.3378 3.16033 12.1188C3.49864 11.8998 3.92685 11.8769 4.28804 12.055C4.77999 12.2985 5.31116 12.4228 5.86847 12.4228C6.42579 12.4228 6.9586 12.2985 7.45054 12.055C7.80357 11.8802 8.2236 11.8981 8.55864 12.1057C8.89532 12.3133 9.09962 12.6777 9.10289 13.0732L9.22056 32.9128C9.2222 33.2168 9.10289 33.5094 8.88715 33.7267C8.67305 33.9441 8.3805 34.0651 8.0765 34.0651ZM5.57429 31.7769H6.92591L6.82458 14.6357C6.2215 14.7338 5.58573 14.737 4.97938 14.6455L5.57429 31.7769Z" fill="black"/>
<path d="M14.2465 45.2885H5.46018C5.11206 45.2885 4.78355 45.13 4.56618 44.8587L3.06256 42.9775C2.90076 42.7748 2.8125 42.5231 2.8125 42.2633V32.9229C2.8125 32.2904 3.32406 31.7788 3.95656 31.7788H9.48726C10.1198 31.7788 10.6313 32.2904 10.6313 32.9229V38.9766H12.3637L15.5818 35.7569C15.9087 35.43 16.4006 35.3319 16.8288 35.5084C17.257 35.6849 17.5349 36.1033 17.5349 36.5659V42.059C17.5349 42.3679 17.4107 42.6637 17.1884 42.8794L15.0441 44.9665C14.8316 45.1725 14.5456 45.2885 14.2465 45.2885ZM6.01096 43.0004H13.7824L15.2468 41.5752V39.328L13.6467 40.9296C13.4326 41.1437 13.1417 41.2647 12.8377 41.2647H9.48726C8.85476 41.2647 8.3432 40.7531 8.3432 40.1206V34.0669H5.10062V41.8629L6.01096 43.0004Z" fill="black"/>
<path d="M28.5027 52.3389C26.4941 52.3389 24.8613 50.7062 24.8613 48.6975C24.8613 46.6889 26.4941 45.0562 28.5027 45.0562C30.5097 45.0562 32.1441 46.6889 32.1441 48.6975C32.1441 50.7062 30.5097 52.3389 28.5027 52.3389ZM28.5027 47.3443C27.7558 47.3443 27.1494 47.9506 27.1494 48.6975C27.1494 49.4444 27.7558 50.0508 28.5027 50.0508C29.248 50.0508 29.856 49.4444 29.856 48.6975C29.856 47.9506 29.2496 47.3443 28.5027 47.3443Z" fill="black"/>
<path d="M39.1062 52.3389C37.0976 52.3389 35.4648 50.7062 35.4648 48.6975C35.4648 46.6889 37.0976 45.0562 39.1062 45.0562C41.1149 45.0562 42.7476 46.6889 42.7476 48.6975C42.7476 50.7062 41.1132 52.3389 39.1062 52.3389ZM39.1062 47.3443C38.3593 47.3443 37.753 47.9506 37.753 48.6975C37.753 49.4444 38.3593 50.0508 39.1062 50.0508C39.8531 50.0508 40.4595 49.4444 40.4595 48.6975C40.4595 47.9506 39.8515 47.3443 39.1062 47.3443Z" fill="black"/>
<path d="M49.7078 52.3391C47.6991 52.3391 46.0664 50.7064 46.0664 48.6978C46.0664 46.6891 47.6991 45.0564 49.7078 45.0564C51.7148 45.0564 53.3491 46.6891 53.3491 48.6978C53.3491 50.7064 51.7148 52.3391 49.7078 52.3391ZM49.7078 47.3445C48.9609 47.3445 48.3545 47.9509 48.3545 48.6978C48.3545 49.4447 48.9609 50.051 49.7078 50.051C50.453 50.051 51.061 49.4447 51.061 48.6978C51.061 47.9509 50.453 47.3445 49.7078 47.3445Z" fill="black"/>
<path d="M60.3113 52.3391C58.3027 52.3391 56.6699 50.7064 56.6699 48.6978C56.6699 46.6891 58.3027 45.0564 60.3113 45.0564C62.3199 45.0564 63.9527 46.6891 63.9527 48.6978C63.9527 50.7064 62.3183 52.3391 60.3113 52.3391ZM60.3113 47.3445C59.5644 47.3445 58.958 47.9509 58.958 48.6978C58.958 49.4447 59.5644 50.051 60.3113 50.051C61.0582 50.051 61.6645 49.4447 61.6645 48.6978C61.6645 47.9509 61.0566 47.3445 60.3113 47.3445Z" fill="black"/>
<path d="M70.9109 52.3389C68.9023 52.3389 67.2695 50.7062 67.2695 48.6975C67.2695 46.6889 68.9023 45.0562 70.9109 45.0562C72.9179 45.0562 74.5523 46.6889 74.5523 48.6975C74.5523 50.7062 72.9179 52.3389 70.9109 52.3389ZM70.9109 47.3443C70.164 47.3443 69.5576 47.9506 69.5576 48.6975C69.5576 49.4444 70.164 50.0508 70.9109 50.0508C71.6562 50.0508 72.2642 49.4444 72.2642 48.6975C72.2625 47.9506 71.6562 47.3443 70.9109 47.3443Z" fill="black"/>
<path d="M5.86902 5.26272C3.8947 5.26272 2.28975 6.86931 2.28975 8.84362C2.28975 10.2165 3.05463 11.4472 4.28695 12.0552C4.78053 12.3003 5.31333 12.4245 5.86902 12.4245C6.42633 12.4245 6.95914 12.3003 7.45108 12.0568C7.45762 12.0535 7.46579 12.0503 7.47233 12.047C7.48704 12.0388 7.50175 12.0306 7.51646 12.0225C8.4791 11.524 9.17698 10.5957 9.38127 9.5366C9.42867 9.30942 9.44991 9.08061 9.44991 8.84526C9.45155 6.86931 7.84497 5.26272 5.86902 5.26272ZM5.86902 14.7126C4.95704 14.7126 4.08265 14.5083 3.272 14.1063C1.25519 13.1126 0 11.0958 0 8.84362C0 5.60758 2.63297 2.97461 5.86738 2.97461C9.10343 2.97461 11.738 5.60758 11.738 8.84362C11.738 9.2326 11.7004 9.61668 11.6253 9.98278C11.2918 11.6989 10.1609 13.2172 8.59841 14.0376C8.54938 14.0654 8.49871 14.0916 8.44641 14.1161C7.6423 14.5116 6.77609 14.7126 5.86902 14.7126Z" fill="black"/>
</g>
</svg>
