<svg width="61" height="44" viewBox="0 0 61 44" fill="none" xmlns="http://www.w3.org/2000/svg">
<path d="M50.5023 27.8047C52.5593 26.1023 53.907 23.4779 53.907 20.5698C53.907 15.6756 49.9349 11.3488 45.3953 11.3488C40.8558 11.3488 36.8837 15.6756 36.8837 20.5698C36.8837 23.4779 38.2314 26.1023 40.2884 27.8047C39.3663 28.1593 38.5151 28.514 37.664 29.0105C34.9686 25.8186 31.4221 23.336 27.3081 22.1302C30.4291 19.9314 32.6279 16.1721 32.6279 12.0581C32.6279 5.60349 27.3081 0 21.2791 0C15.25 0 9.93023 5.60349 9.93023 12.0581C9.93023 16.1721 12.1291 19.9314 15.25 22.1302C6.45465 24.7547 0 32.9116 0 42.5581C0 43.3384 0.638372 43.9767 1.4186 43.9767H59.5814C60.3616 43.9767 61 43.3384 61 42.5581C61 35.7488 56.6023 29.9326 50.5023 27.8047ZM39.7209 20.5698C39.7209 17.5907 42.2035 14.186 45.3953 14.186C48.5872 14.186 51.0698 17.5907 51.0698 20.5698C51.0698 23.5488 48.5872 26.9535 45.3953 26.9535C42.2035 26.9535 39.7209 23.5488 39.7209 20.5698ZM12.7674 12.0581C12.7674 7.7314 16.3849 2.83721 21.2791 2.83721C26.1733 2.83721 29.7907 7.7314 29.7907 12.0581C29.7907 16.3849 26.1733 21.2791 21.2791 21.2791C16.3849 21.2791 12.7674 16.3849 12.7674 12.0581ZM2.90814 41.1395C3.61744 31.6349 11.6326 24.1163 21.2791 24.1163C30.9965 24.1163 38.9407 31.6349 39.65 41.1395H2.90814ZM42.4872 41.1395C42.2744 37.593 41.1395 34.1884 39.2953 31.3512C41.1395 30.3581 43.1965 29.7907 45.3953 29.7907C51.9919 29.7907 57.3826 34.7558 58.0919 41.1395H42.4872Z" fill="#0CBB65"/>
</svg>
