<svg width="48" height="48" viewBox="0 0 48 48" fill="none" xmlns="http://www.w3.org/2000/svg">
<path d="M44.6376 17.2708V10.3098L37.6399 6.80858L30.8358 0L24 1.70929L17.1642 0L10.3601 6.80858L3.36235 10.3098V17.2708L0 24L3.36235 30.7292V37.6902L10.3601 41.1914L17.1642 48L24 46.2907L30.8358 48L37.6399 41.1914L44.6376 37.6902V30.7292L48 24L44.6376 17.2708ZM41.4626 29.9793V35.7268L35.9889 38.4655L29.8643 44.4797L24 43.0119L18.1357 44.4797L12.4207 38.7609L6.5342 35.7236V29.9793L3.54968 24L6.53737 18.0207V12.2732L12.0111 9.53455L18.1389 3.51708L24.0032 4.98491L29.8674 3.51708L35.5825 9.2359L41.469 12.2732V18.0207L44.4503 24L41.4626 29.9793Z" fill="#0CBB65"/>
<path d="M32.4799 13.347L13.418 32.4089L15.6645 34.6555L34.7264 15.5935L32.4799 13.347Z" fill="#0CBB65"/>
<path d="M17.8468 22.1538C20.2217 22.1538 22.1544 19.945 22.1544 17.2307C22.1544 14.5164 20.2217 12.3076 17.8468 12.3076C15.4718 12.3076 13.5391 14.5164 13.5391 17.2307C13.5391 19.945 15.4718 22.1538 17.8468 22.1538ZM17.8468 15.5897C18.6394 15.5897 19.2827 16.3248 19.2827 17.2307C19.2827 18.1365 18.6394 18.8717 17.8468 18.8717C17.0541 18.8717 16.4109 18.1365 16.4109 17.2307C16.4109 16.3248 17.0541 15.5897 17.8468 15.5897Z" fill="#0CBB65"/>
<path d="M30.7688 25.8462C28.0545 25.8462 25.8457 28.055 25.8457 30.7693C25.8457 33.4835 28.0545 35.6923 30.7688 35.6923C33.483 35.6923 35.6919 33.4835 35.6919 30.7693C35.6919 28.055 33.483 25.8462 30.7688 25.8462ZM30.7688 32.4103C29.8629 32.4103 29.1278 31.6751 29.1278 30.7693C29.1278 29.8634 29.8629 29.1282 30.7688 29.1282C31.6746 29.1282 32.4098 29.8634 32.4098 30.7693C32.4098 31.6751 31.6746 32.4103 30.7688 32.4103Z" fill="#0CBB65"/>
</svg>
