<svg width="15" height="25" viewBox="0 0 15 25" fill="none" xmlns="http://www.w3.org/2000/svg">
<path d="M13.9124 0.724266C13.4299 0.241244 12.8579 0 12.1972 0H2.43961C1.77876 0 1.20709 0.241444 0.724267 0.724266C0.241445 1.20682 0 1.77869 0 2.43934V21.9552C0 22.6158 0.241445 23.1876 0.724267 23.6703C1.20709 24.1532 1.77876 24.3947 2.43961 24.3947H12.1972C12.8578 24.3947 13.4299 24.153 13.9123 23.6703C14.3952 23.1876 14.6367 22.6158 14.6367 21.9552V2.43934C14.6367 1.77869 14.3955 1.20709 13.9124 0.724266ZM5.7938 2.43934H8.84339C9.04672 2.43934 9.14812 2.54101 9.14812 2.74433C9.14812 2.9476 9.04665 3.04939 8.84339 3.04939H5.7938C5.59053 3.04939 5.48887 2.9476 5.48887 2.74433C5.4888 2.54101 5.59047 2.43934 5.7938 2.43934ZM8.39555 23.0321C8.09676 23.3304 7.7379 23.4798 7.31849 23.4798C6.89929 23.4798 6.54042 23.3304 6.24177 23.0321C5.94312 22.7332 5.7938 22.3741 5.7938 21.9552C5.7938 21.5358 5.94332 21.1769 6.24177 20.8783C6.54022 20.58 6.89935 20.4301 7.31849 20.4301C7.73797 20.4301 8.09683 20.58 8.39555 20.8783C8.69413 21.1769 8.84332 21.5358 8.84332 21.9552C8.84332 22.3746 8.69393 22.7333 8.39555 23.0321ZM12.8074 18.906C12.8074 19.071 12.7472 19.2144 12.6263 19.3348C12.5052 19.4555 12.3627 19.5155 12.1977 19.5155H2.43961C2.27446 19.5155 2.13155 19.4553 2.01086 19.3348C1.89017 19.2144 1.82982 19.071 1.82982 18.906V5.489C1.82982 5.32386 1.8901 5.18081 2.01086 5.06025C2.13161 4.93976 2.27446 4.87908 2.43961 4.87908H12.1972C12.3627 4.87908 12.5054 4.9395 12.6263 5.06025C12.7472 5.18087 12.8072 5.32386 12.8072 5.489V18.906H12.8074V18.906Z" fill="#EFEFEF"/>
</svg>
