<svg width="17" height="24" viewBox="0 0 17 24" fill="none" xmlns="http://www.w3.org/2000/svg">
<path d="M17 8.52971C17 3.81882 13.1944 0 8.49974 0C3.80563 0 0 3.81882 0 8.52971C0 9.45032 0.147305 10.3367 0.416588 11.1676C0.416588 11.1676 1.13192 14.3894 8.44651 24C12.6346 18.4966 14.6581 15.0906 15.6231 13.1825C16.4924 11.8439 17 10.2464 17 8.52971ZM8.40567 14.0264C5.4327 14.0264 3.02207 11.6079 3.02207 8.62411C3.02207 5.64084 5.4327 3.22237 8.40567 3.22237C11.3786 3.22237 13.7893 5.64084 13.7893 8.62411C13.7888 11.6079 11.3786 14.0264 8.40567 14.0264Z" fill="#EFEFEF"/>
</svg>
