<svg width="41" height="52" viewBox="0 0 41 52" fill="none" xmlns="http://www.w3.org/2000/svg">
<path fill-rule="evenodd" clip-rule="evenodd" d="M6.83618 6.95736H1.70905C0.765652 6.95736 0 7.73348 0 8.68976C0 8.68976 0 12.6102 0 15.6402C0 18.5108 2.29525 20.8374 5.12714 20.8374H6.83618V21.0245C6.83618 27.1382 12.0095 32.3112 18.8012 33.063L18.8251 41.6159H10.2731C9.32968 41.6159 8.56403 42.3921 8.56403 43.3484V50.2676C8.56403 51.2239 9.32968 52 10.2731 52H30.7697C31.713 52 32.4787 51.2239 32.4787 50.2676V43.3484C32.4787 42.3921 31.713 41.6159 30.7697 41.6159H22.2432L22.2193 33.063C29.0093 32.3094 34.1809 27.1382 34.1809 21.0245V20.8166H35.8729C38.7048 20.8166 41 18.49 41 15.6194V8.66898C41 7.71095 40.2343 6.93657 39.291 6.93657H34.1809V5.19723C34.1809 2.32663 31.8857 0 29.0538 0H11.9633C9.13143 0 6.83618 2.32663 6.83618 5.19723V6.95736ZM29.0606 45.0808V48.5352H11.9821V45.0808H29.0606ZM11.9633 3.46482H29.0538C29.9972 3.46482 30.7628 4.24094 30.7628 5.19723V21.0245C30.7628 25.8874 26.1023 29.6918 20.5085 29.6918C14.9148 29.6918 10.2543 25.8874 10.2543 21.0245V5.19723C10.2543 4.24094 11.0199 3.46482 11.9633 3.46482ZM6.83618 10.4222H3.41809V15.6402C3.41809 16.5982 4.18374 17.3726 5.12714 17.3726H6.83618V10.4222ZM34.1809 10.4014V17.3518H35.8729C36.8163 17.3518 37.5819 16.5757 37.5819 15.6194V10.4014H34.1809Z" fill="#0CBB65"/>
</svg>
