<svg width="26" height="26" viewBox="0 0 26 26" fill="none" xmlns="http://www.w3.org/2000/svg">
<path d="M26 13C26 20.1797 20.1797 26 13 26C5.8203 26 0 20.1797 0 13C0 5.8203 5.8203 0 13 0C20.1797 0 26 5.8203 26 13Z" fill="#0CBB65"/>
<path fill-rule="evenodd" clip-rule="evenodd" d="M12.9998 7.4285C13.4101 7.4285 13.7427 7.76109 13.7427 8.17136V12.2571H17.8284C18.2387 12.2571 18.5713 12.5897 18.5713 12.9999C18.5713 13.4102 18.2387 13.7428 17.8284 13.7428H13.7427V17.8285C13.7427 18.2388 13.4101 18.5714 12.9998 18.5714C12.5896 18.5714 12.257 18.2388 12.257 17.8285V13.7428H8.17125C7.76098 13.7428 7.4284 13.4102 7.4284 12.9999C7.4284 12.5897 7.76098 12.2571 8.17125 12.2571H12.257V8.17136C12.257 7.76109 12.5896 7.4285 12.9998 7.4285Z" fill="white"/>
</svg>
