<svg width="16" height="16" viewBox="0 0 16 16" fill="none" xmlns="http://www.w3.org/2000/svg">
<path d="M0 2.1089C0 1.38591 0.573076 0.799805 1.28 0.799805H14.72C15.4269 0.799805 16 1.38591 16 2.1089C16 2.83189 15.4269 3.41799 14.72 3.41799H1.28C0.573075 3.41799 0 2.83189 0 2.1089Z" fill="white"/>
<path d="M0 13.8907C0 13.1677 0.573076 12.5816 1.28 12.5816H14.72C15.4269 12.5816 16 13.1677 16 13.8907C16 14.6137 15.4269 15.1998 14.72 15.1998H1.28C0.573075 15.1998 0 14.6137 0 13.8907Z" fill="white"/>
<path d="M7.04 7.9998C7.04 7.27681 7.61308 6.69071 8.32 6.69071H14.72C15.4269 6.69071 16 7.27681 16 7.9998C16 8.7228 15.4269 9.3089 14.72 9.3089H8.32C7.61308 9.3089 7.04 8.7228 7.04 7.9998Z" fill="white"/>
</svg>
