<svg width="22" height="18" viewBox="0 0 22 18" fill="none" xmlns="http://www.w3.org/2000/svg">
<path d="M5.5 6H3C1.89543 6 1 6.89543 1 8V15C1 16.1046 1.89543 17 3 17H19C20.1046 17 21 16.1046 21 15V8C21 6.89543 20.1046 6 19 6H16.5" stroke="#0CBB65" stroke-width="1.5" stroke-linecap="round"/>
<path d="M11.75 1C11.75 0.585786 11.4142 0.25 11 0.25C10.5858 0.25 10.25 0.585786 10.25 1L11.75 1ZM10.4697 14.5303C10.7626 14.8232 11.2374 14.8232 11.5303 14.5303L16.3033 9.75736C16.5962 9.46447 16.5962 8.98959 16.3033 8.6967C16.0104 8.40381 15.5355 8.40381 15.2426 8.6967L11 12.9393L6.75736 8.6967C6.46447 8.40381 5.98959 8.40381 5.6967 8.6967C5.40381 8.98959 5.40381 9.46447 5.6967 9.75736L10.4697 14.5303ZM10.25 1L10.25 14L11.75 14L11.75 1L10.25 1Z" fill="#0CBB65"/>
</svg>
