<svg width="31" height="18" viewBox="0 0 31 18" fill="none" xmlns="http://www.w3.org/2000/svg">
<path d="M0.171875 17.0488V0.857422H7.75V3.51367H4.13672V7.12695H6.83203V9.88086H4.13672V14.4023H7.78906V17.0488H0.171875ZM14.1855 17.3027C13.2611 17.3027 12.4701 17.1823 11.8125 16.9414C11.1615 16.694 10.6439 16.3294 10.2598 15.8477C9.88216 15.3659 9.60547 14.8027 9.42969 14.1582C9.26042 13.5137 9.17578 12.7552 9.17578 11.8828V6.0332C9.17578 5.1543 9.26042 4.39258 9.42969 3.74805C9.60547 3.10352 9.88216 2.54036 10.2598 2.05859C10.6439 1.57682 11.1615 1.21549 11.8125 0.974609C12.4701 0.727214 13.2611 0.603516 14.1855 0.603516C14.9212 0.603516 15.569 0.681641 16.1289 0.837891C16.6888 0.98763 17.1478 1.19922 17.5059 1.47266C17.8704 1.73958 18.1667 2.07487 18.3945 2.47852C18.6224 2.87565 18.7819 3.30208 18.873 3.75781C18.9707 4.21354 19.0195 4.72135 19.0195 5.28125V6.73633H15.123V4.95898C15.123 4.72461 15.1165 4.53906 15.1035 4.40234C15.0905 4.25911 15.0547 4.09635 14.9961 3.91406C14.944 3.72526 14.8496 3.58529 14.7129 3.49414C14.5762 3.39648 14.4004 3.34766 14.1855 3.34766C14.0098 3.34766 13.8568 3.38346 13.7266 3.45508C13.6029 3.52669 13.5085 3.61133 13.4434 3.70898C13.3783 3.80664 13.3262 3.93685 13.2871 4.09961C13.2546 4.26237 13.2318 4.4056 13.2188 4.5293C13.2122 4.65299 13.209 4.79948 13.209 4.96875V12.9375C13.209 13.1068 13.2122 13.2565 13.2188 13.3867C13.2318 13.5104 13.2578 13.6536 13.2969 13.8164C13.3359 13.9727 13.388 14.1029 13.4531 14.207C13.5182 14.3047 13.6126 14.3893 13.7363 14.4609C13.8665 14.526 14.0163 14.5586 14.1855 14.5586C14.4004 14.5586 14.5762 14.513 14.7129 14.4219C14.8496 14.3242 14.944 14.181 14.9961 13.9922C15.0547 13.8034 15.0905 13.6406 15.1035 13.5039C15.1165 13.3607 15.123 13.1719 15.123 12.9375V11.082H19.0195V12.5273C19.0195 13.0938 18.9707 13.6081 18.873 14.0703C18.7819 14.526 18.6224 14.959 18.3945 15.3691C18.1667 15.7793 17.8704 16.1243 17.5059 16.4043C17.1478 16.6777 16.6888 16.8958 16.1289 17.0586C15.569 17.2214 14.9212 17.3027 14.1855 17.3027ZM25.7285 17.3027C24.804 17.3027 24.013 17.1823 23.3555 16.9414C22.7044 16.694 22.1868 16.3294 21.8027 15.8477C21.4251 15.3659 21.1484 14.8027 20.9727 14.1582C20.8034 13.5137 20.7188 12.7552 20.7188 11.8828V6.0332C20.7188 5.1543 20.8034 4.39258 20.9727 3.74805C21.1484 3.10352 21.4251 2.54036 21.8027 2.05859C22.1868 1.57682 22.7044 1.21549 23.3555 0.974609C24.013 0.727214 24.804 0.603516 25.7285 0.603516C26.4642 0.603516 27.112 0.681641 27.6719 0.837891C28.2318 0.98763 28.6908 1.19922 29.0488 1.47266C29.4134 1.73958 29.7096 2.07487 29.9375 2.47852C30.1654 2.87565 30.3249 3.30208 30.416 3.75781C30.5137 4.21354 30.5625 4.72135 30.5625 5.28125V6.73633H26.666V4.95898C26.666 4.72461 26.6595 4.53906 26.6465 4.40234C26.6335 4.25911 26.5977 4.09635 26.5391 3.91406C26.487 3.72526 26.3926 3.58529 26.2559 3.49414C26.1191 3.39648 25.9434 3.34766 25.7285 3.34766C25.5527 3.34766 25.3997 3.38346 25.2695 3.45508C25.1458 3.52669 25.0514 3.61133 24.9863 3.70898C24.9212 3.80664 24.8691 3.93685 24.8301 4.09961C24.7975 4.26237 24.7747 4.4056 24.7617 4.5293C24.7552 4.65299 24.752 4.79948 24.752 4.96875V12.9375C24.752 13.1068 24.7552 13.2565 24.7617 13.3867C24.7747 13.5104 24.8008 13.6536 24.8398 13.8164C24.8789 13.9727 24.931 14.1029 24.9961 14.207C25.0612 14.3047 25.1556 14.3893 25.2793 14.4609C25.4095 14.526 25.5592 14.5586 25.7285 14.5586C25.9434 14.5586 26.1191 14.513 26.2559 14.4219C26.3926 14.3242 26.487 14.181 26.5391 13.9922C26.5977 13.8034 26.6335 13.6406 26.6465 13.5039C26.6595 13.3607 26.666 13.1719 26.666 12.9375V11.082H30.5625V12.5273C30.5625 13.0938 30.5137 13.6081 30.416 14.0703C30.3249 14.526 30.1654 14.959 29.9375 15.3691C29.7096 15.7793 29.4134 16.1243 29.0488 16.4043C28.6908 16.6777 28.2318 16.8958 27.6719 17.0586C27.112 17.2214 26.4642 17.3027 25.7285 17.3027Z" fill="white"/>
</svg>
