<svg width="311" height="574" viewBox="0 0 311 574" fill="none" xmlns="http://www.w3.org/2000/svg">
<path d="M306.211 574H0.789474L0.789474 430.869H50.8947V499.114H119.053L119.053 448.207H171V499.114H256.289V430.131H306.211V574Z" fill="white" fill-opacity="0.05"/>
<path d="M311 309.318C311 326.779 308.728 341.719 304.184 354.139C299.518 366.435 292.64 376.211 283.553 383.466C274.465 390.598 263.842 395.824 251.684 399.144C239.526 402.341 225.219 403.94 208.763 403.94H98.4211C81.8421 403.94 67.4737 402.341 55.3158 399.144C43.1579 395.824 32.5351 390.598 23.4474 383.466C14.3596 376.211 7.54386 366.435 3 354.139C-1.66667 341.719 -4 326.779 -4 309.318C-4 295.423 -2.52632 283.188 0.421052 272.613C3.24561 262.038 7.23684 253.369 12.3947 246.606C17.4298 239.72 23.7544 234.125 31.3684 229.821C38.8596 225.518 46.9035 222.505 55.5 220.783C64.0965 218.939 73.6754 218.017 84.2368 218.017H111.684L111.684 291.611H78.1579C73.7368 291.611 70.2368 291.734 67.6579 291.98C64.9561 292.226 61.886 292.902 58.4474 294.009C54.886 294.993 52.2456 296.776 50.5263 299.358C48.6842 301.94 47.7632 305.26 47.7632 309.318C47.7632 312.638 48.4386 315.528 49.7895 317.987C51.1403 320.323 52.7368 322.106 54.5789 323.336C56.4211 324.566 58.8772 325.549 61.9474 326.287C65.0175 326.902 67.7193 327.332 70.0526 327.578C72.386 327.701 75.1491 327.763 78.3421 327.763H228.658C231.851 327.763 234.675 327.701 237.132 327.578C239.465 327.332 242.167 326.841 245.237 326.103C248.184 325.365 250.64 324.381 252.605 323.152C254.447 321.922 256.044 320.139 257.395 317.803C258.623 315.343 259.237 312.515 259.237 309.318C259.237 305.26 258.377 301.94 256.658 299.358C254.816 296.776 252.114 294.993 248.553 294.009C244.991 292.902 241.921 292.226 239.342 291.98C236.64 291.734 233.079 291.611 228.658 291.611H193.658V218.017H220.921C231.605 218.017 241.307 218.939 250.026 220.783C258.623 222.505 266.789 225.518 274.526 229.821C282.263 234.125 288.772 239.72 294.053 246.606C299.211 253.369 303.325 262.038 306.395 272.613C309.465 283.188 311 295.423 311 309.318Z" fill="white" fill-opacity="0.05"/>
<path d="M311 91.3014C311 108.762 308.728 123.703 304.184 136.122C299.518 148.419 292.64 158.194 283.553 165.449C274.465 172.581 263.842 177.807 251.684 181.127C239.526 184.324 225.219 185.923 208.763 185.923H98.4211C81.8421 185.923 67.4737 184.324 55.3158 181.127C43.1579 177.807 32.5351 172.581 23.4474 165.449C14.3596 158.194 7.54386 148.419 3 136.122C-1.66667 123.703 -4 108.762 -4 91.3014C-4 77.4064 -2.52632 65.1714 0.421052 54.5964C3.24561 44.0214 7.23684 35.3524 12.3947 28.5894C17.4298 21.7033 23.7544 16.1084 31.3684 11.8046C38.8596 7.50086 46.9035 4.48823 55.5 2.76672C64.0965 0.922251 73.6754 0 84.2368 0H111.684V73.5945H78.1579C73.7368 73.5945 70.2368 73.7174 67.6579 73.9634C64.9561 74.2093 61.886 74.8856 58.4474 75.9923C54.886 76.976 52.2456 78.759 50.5263 81.3412C48.6842 83.9235 47.7632 87.2436 47.7632 91.3014C47.7632 94.6215 48.4386 97.5111 49.7895 99.9704C51.1403 102.307 52.7368 104.09 54.5789 105.319C56.4211 106.549 58.8772 107.533 61.9474 108.271C65.0175 108.885 67.7193 109.316 70.0526 109.562C72.386 109.685 75.1491 109.746 78.3421 109.746H228.658C231.851 109.746 234.675 109.685 237.132 109.562C239.465 109.316 242.167 108.824 245.237 108.086C248.184 107.348 250.64 106.365 252.605 105.135C254.447 103.905 256.044 102.122 257.395 99.786C258.623 97.3267 259.237 94.4985 259.237 91.3014C259.237 87.2436 258.377 83.9235 256.658 81.3412C254.816 78.759 252.114 76.976 248.553 75.9923C244.991 74.8856 241.921 74.2093 239.342 73.9634C236.64 73.7174 233.079 73.5945 228.658 73.5945H193.658V0H220.921C231.605 0 241.307 0.922251 250.026 2.76672C258.623 4.48823 266.789 7.50086 274.526 11.8046C282.263 16.1084 288.772 21.7033 294.053 28.5894C299.211 35.3524 303.325 44.0214 306.395 54.5964C309.465 65.1714 311 77.4064 311 91.3014Z" fill="white" fill-opacity="0.05"/>
</svg>
