<svg width="75" height="105" viewBox="0 0 75 105" fill="none" xmlns="http://www.w3.org/2000/svg">
<path d="M0 2.99198C0 1.33956 1.50352 0 3.35821 0H71.6418C73.4965 0 75 1.33956 75 2.99198L75 101.502C75 104.086 71.5722 105.455 69.4074 103.736L39.7344 80.1735C38.461 79.1624 36.539 79.1624 35.2656 80.1735L5.59261 103.736C3.42788 105.455 1.52588e-05 104.086 1.52588e-05 101.502L0 2.99198Z" fill="url(#paint0_linear_7328_90)"/>
<path d="M22.2781 37.4674C25.5592 37.4674 27.9758 38.1214 29.5277 39.4294C31.1017 40.7374 31.8888 42.4889 31.8888 44.6837C31.8888 46.1026 31.534 47.3995 30.8246 48.5745C30.1152 49.7273 29.0288 50.6585 27.5656 51.3679C26.1246 52.0552 24.3399 52.3988 22.2116 52.3988C20.571 52.3988 18.9526 52.1882 17.3564 51.767C15.7823 51.3236 14.441 50.7028 13.3325 49.9047L15.4608 45.7811C16.3476 46.4462 17.3674 46.9672 18.5203 47.3441C19.6731 47.6988 20.8592 47.8761 22.0786 47.8761C23.4309 47.8761 24.4951 47.6101 25.271 47.078C26.047 46.546 26.435 45.8033 26.435 44.85C26.435 43.8523 26.0248 43.0985 25.2045 42.5886C24.4064 42.0787 23.0097 41.8238 21.0144 41.8238H15.0618L16.259 28.7213H30.4588V33.0445H20.7484L20.3826 37.4674H22.2781Z" fill="white"/>
<path d="M37.1672 45.8143C38.0983 45.8143 38.8632 46.1136 39.4618 46.7122C40.0604 47.2886 40.3597 48.0535 40.3597 49.0068C40.3597 49.4502 40.3042 49.8936 40.1934 50.337C40.0825 50.7804 39.8387 51.4455 39.4618 52.3323L37.5662 57.121H34.274L35.7372 51.8335C35.183 51.6118 34.7396 51.2571 34.407 50.7693C34.0967 50.2594 33.9415 49.6719 33.9415 49.0068C33.9415 48.0535 34.2408 47.2886 34.8393 46.7122C35.4601 46.1136 36.2361 45.8143 37.1672 45.8143Z" fill="white"/>
<path d="M52.3322 52.3988C50.4034 52.3988 48.6853 51.9222 47.1777 50.9689C45.6701 50.0155 44.4841 48.641 43.6194 46.8452C42.777 45.0273 42.3557 42.8657 42.3557 40.3605C42.3557 37.8553 42.777 35.7049 43.6194 33.9091C44.4841 32.0912 45.6701 30.7055 47.1777 29.7522C48.6853 28.7989 50.4034 28.3223 52.3322 28.3223C54.261 28.3223 55.9792 28.7989 57.4867 29.7522C58.9943 30.7055 60.1693 32.0912 61.0117 33.9091C61.8764 35.7049 62.3087 37.8553 62.3087 40.3605C62.3087 42.8657 61.8764 45.0273 61.0117 46.8452C60.1693 48.641 58.9943 50.0155 57.4867 50.9689C55.9792 51.9222 54.261 52.3988 52.3322 52.3988ZM52.3322 47.8429C53.7511 47.8429 54.8596 47.2332 55.6577 46.0139C56.478 44.7945 56.8881 42.9101 56.8881 40.3605C56.8881 37.811 56.478 35.9266 55.6577 34.7072C54.8596 33.4879 53.7511 32.8782 52.3322 32.8782C50.9355 32.8782 49.827 33.4879 49.0067 34.7072C48.2086 35.9266 47.8095 37.811 47.8095 40.3605C47.8095 42.9101 48.2086 44.7945 49.0067 46.0139C49.827 47.2332 50.9355 47.8429 52.3322 47.8429Z" fill="white"/>
<defs>
<linearGradient id="paint0_linear_7328_90" x1="37.5" y1="-12.5" x2="37.5" y2="104.5" gradientUnits="userSpaceOnUse">
<stop offset="0.130874" stop-color="#2EC96C"/>
<stop offset="1" stop-color="#0CBB65"/>
</linearGradient>
</defs>
</svg>
