<svg width="161" height="58" viewBox="0 0 161 58" fill="none" xmlns="http://www.w3.org/2000/svg">
<path d="M60.9969 57.8986H69.5601L34.7802 23.1216L17.8572 40.0433V31.6313H11.8492V46.0506L0 57.8989H8.56323L13.1018 53.361H56.4583L60.9969 57.8986ZM19.1574 47.306L34.7802 31.6848L50.403 47.306H19.1574Z" fill="#0CBB65"/>
<path d="M31.8361 41.3115C31.8361 42.9372 33.1539 44.2551 34.7796 44.2551C36.4053 44.2551 37.7235 42.9372 37.7235 41.3115C37.7235 39.6858 36.4057 38.3679 34.7796 38.3679C33.1542 38.3679 31.8361 39.6858 31.8361 41.3115Z" fill="#0CBB65"/>
<path d="M24.9054 25.6002C25.4154 26.0877 26.2339 26.0317 26.6727 25.4791L30.3601 20.8361L29.5897 20.1L31.0632 18.5589C31.6719 17.922 32.6819 17.8993 33.3187 18.5082L33.7224 18.8939L34.8503 17.7141L69.5776 52.3604L69.5366 43.7283L37.7913 14.6373L38.9192 13.4575C38.9192 13.4575 33.3376 7.23689 43.4994 0.0126614C29.7579 -0.458233 26.8909 12.3623 26.8909 12.3623L27.2945 12.7483C27.9313 13.3572 27.9541 14.3669 27.3451 15.0038L25.8719 16.5449L25.1018 15.8085L20.6292 19.7009C20.0972 20.1641 20.0779 20.9841 20.5879 21.4717L24.9054 25.6002Z" fill="#0CBB65"/>
<path d="M84.1906 47.6406V9.30509H102.133V15.5942H93.578V24.1491H99.9595V30.6694H93.578V41.3747H102.225V47.6406H84.1906ZM117.37 48.2418C115.181 48.2418 113.308 47.9566 111.751 47.3863C110.21 46.8005 108.985 45.9373 108.075 44.7967C107.181 43.656 106.526 42.3227 106.11 40.7966C105.709 39.2706 105.509 37.4748 105.509 35.4093V21.5595C105.509 19.4786 105.709 17.6751 106.11 16.1491C106.526 14.623 107.181 13.2897 108.075 12.149C108.985 11.0084 110.21 10.1529 111.751 9.58255C113.308 8.9968 115.181 8.70393 117.37 8.70393C119.112 8.70393 120.646 8.8889 121.971 9.25885C123.297 9.61338 124.384 10.1143 125.231 10.7617C126.095 11.3937 126.796 12.1876 127.335 13.1433C127.875 14.0835 128.253 15.0932 128.468 16.1722C128.7 17.2512 128.815 18.4535 128.815 19.7792V23.2243H119.59V19.0161C119.59 18.4612 119.574 18.0219 119.543 17.6982C119.513 17.3591 119.428 16.9737 119.289 16.5421C119.166 16.0951 118.942 15.7637 118.619 15.5479C118.295 15.3167 117.879 15.2011 117.37 15.2011C116.954 15.2011 116.592 15.2859 116.283 15.4554C115.99 15.625 115.767 15.8254 115.613 16.0566C115.459 16.2878 115.335 16.5961 115.243 16.9814C115.166 17.3668 115.112 17.7059 115.081 17.9988C115.066 18.2917 115.058 18.6385 115.058 19.0393V37.9065C115.058 38.3072 115.066 38.6618 115.081 38.97C115.112 39.2629 115.173 39.602 115.266 39.9874C115.358 40.3573 115.482 40.6656 115.636 40.9123C115.79 41.1435 116.014 41.3439 116.306 41.5134C116.615 41.6676 116.969 41.7446 117.37 41.7446C117.879 41.7446 118.295 41.6367 118.619 41.4209C118.942 41.1897 119.166 40.8506 119.289 40.4036C119.428 39.9566 119.513 39.5712 119.543 39.2475C119.574 38.9084 119.59 38.4614 119.59 37.9065V33.5134H128.815V36.9353C128.815 38.2764 128.7 39.4941 128.468 40.5886C128.253 41.6676 127.875 42.6926 127.335 43.6637C126.796 44.6348 126.095 45.4518 125.231 46.1146C124.384 46.762 123.297 47.2784 121.971 47.6637C120.646 48.0491 119.112 48.2418 117.37 48.2418ZM144.7 48.2418C142.511 48.2418 140.638 47.9566 139.081 47.3863C137.54 46.8005 136.314 45.9373 135.405 44.7967C134.511 43.656 133.856 42.3227 133.44 40.7966C133.039 39.2706 132.838 37.4748 132.838 35.4093V21.5595C132.838 19.4786 133.039 17.6751 133.44 16.1491C133.856 14.623 134.511 13.2897 135.405 12.149C136.314 11.0084 137.54 10.1529 139.081 9.58255C140.638 8.9968 142.511 8.70393 144.7 8.70393C146.442 8.70393 147.975 8.8889 149.301 9.25885C150.627 9.61338 151.713 10.1143 152.561 10.7617C153.424 11.3937 154.126 12.1876 154.665 13.1433C155.205 14.0835 155.582 15.0932 155.798 16.1722C156.029 17.2512 156.145 18.4535 156.145 19.7792V23.2243H146.919V19.0161C146.919 18.4612 146.904 18.0219 146.873 17.6982C146.842 17.3591 146.758 16.9737 146.619 16.5421C146.495 16.0951 146.272 15.7637 145.948 15.5479C145.625 15.3167 145.208 15.2011 144.7 15.2011C144.284 15.2011 143.921 15.2859 143.613 15.4554C143.32 15.625 143.097 15.8254 142.942 16.0566C142.788 16.2878 142.665 16.5961 142.573 16.9814C142.495 17.3668 142.441 17.7059 142.411 17.9988C142.395 18.2917 142.388 18.6385 142.388 19.0393V37.9065C142.388 38.3072 142.395 38.6618 142.411 38.97C142.441 39.2629 142.503 39.602 142.596 39.9874C142.688 40.3573 142.811 40.6656 142.966 40.9123C143.12 41.1435 143.343 41.3439 143.636 41.5134C143.944 41.6676 144.299 41.7446 144.7 41.7446C145.208 41.7446 145.625 41.6367 145.948 41.4209C146.272 41.1897 146.495 40.8506 146.619 40.4036C146.758 39.9566 146.842 39.5712 146.873 39.2475C146.904 38.9084 146.919 38.4614 146.919 37.9065V33.5134H156.145V36.9353C156.145 38.2764 156.029 39.4941 155.798 40.5886C155.582 41.6676 155.205 42.6926 154.665 43.6637C154.126 44.6348 153.424 45.4518 152.561 46.1146C151.713 46.762 150.627 47.2784 149.301 47.6637C147.975 48.0491 146.442 48.2418 144.7 48.2418Z" fill="#0CBB65"/>
</svg>
