<svg width="518" height="432" viewBox="0 0 518 432" fill="none" xmlns="http://www.w3.org/2000/svg">
<path d="M454.155 431.094H517.913L258.958 172.16L132.956 298.152V235.52H88.224V342.879L0 431.096H63.7579L97.5497 397.309H420.363L454.155 431.094ZM142.637 352.226L258.958 235.918L375.278 352.226H142.637Z" fill="#303030" fill-opacity="0.07"/>
<path d="M237.037 307.587C237.037 319.692 246.849 329.504 258.954 329.504C271.058 329.504 280.872 319.692 280.872 307.587C280.872 295.483 271.06 285.671 258.954 285.671C246.852 285.671 237.037 295.483 237.037 307.587Z" fill="#303030" fill-opacity="0.07"/>
<path d="M185.439 190.607C189.236 194.237 195.33 193.82 198.598 189.706L226.052 155.136L220.316 149.655L231.288 138.181C235.819 133.439 243.34 133.27 248.081 137.804L251.086 140.676L259.484 131.891L518.048 389.852L517.743 325.581L281.382 108.983L289.779 100.198C289.779 100.198 248.222 53.8826 323.881 0.094271C221.569 -3.4118 200.222 92.0438 200.222 92.0438L203.227 94.9178C207.969 99.4519 208.138 106.97 203.604 111.711L192.635 123.186L186.901 117.703L153.601 146.684C149.639 150.132 149.496 156.238 153.293 159.868L185.439 190.607Z" fill="#303030" fill-opacity="0.07"/>
</svg>
