<svg width="32" height="32" viewBox="0 0 32 32" fill="none" xmlns="http://www.w3.org/2000/svg">
<circle cx="16" cy="16" r="16" fill="#0CBB65"/>
<g clip-path="url(#clip0_7205_1239)">
<path fill-rule="evenodd" clip-rule="evenodd" d="M15.9977 8C11.5874 8 8 11.5884 8 15.9999C8 17.7495 8.56421 19.372 9.52334 20.689L8.52653 23.6613L11.6015 22.6785C12.8662 23.5157 14.3755 24 16.0023 24C20.4126 24 24 20.4114 24 16.0001C24 11.5886 20.4126 8.00013 16.0023 8.00013L15.9977 8ZM13.7643 12.0636C13.6092 11.6921 13.4916 11.678 13.2566 11.6685C13.1766 11.6638 13.0874 11.6592 12.9885 11.6592C12.6828 11.6592 12.3632 11.7485 12.1703 11.946C11.9353 12.1859 11.3523 12.7455 11.3523 13.8931C11.3523 15.0407 12.1892 16.1506 12.302 16.3059C12.4195 16.4609 13.9336 18.8501 16.2844 19.8238C18.1228 20.5857 18.6683 20.5151 19.0867 20.4258C19.6979 20.2941 20.4643 19.8424 20.6571 19.297C20.85 18.7514 20.8499 18.2857 20.7934 18.187C20.737 18.0882 20.5818 18.0319 20.3468 17.9142C20.1118 17.7966 18.9691 17.2322 18.7528 17.157C18.5412 17.0771 18.3391 17.1053 18.1793 17.3311C17.9536 17.6462 17.7327 17.9661 17.5539 18.1588C17.4129 18.3094 17.1824 18.3282 16.9897 18.2482C16.7311 18.1401 16.0071 17.8859 15.1137 17.0911C14.4225 16.4751 13.9523 15.7086 13.816 15.4782C13.6796 15.2431 13.802 15.1065 13.91 14.9796C14.0275 14.8337 14.1403 14.7303 14.2579 14.5939C14.3755 14.4576 14.4413 14.387 14.5165 14.227C14.5966 14.0719 14.54 13.9119 14.4836 13.7943C14.4272 13.6767 13.9571 12.5291 13.7643 12.0636Z" fill="white"/>
</g>
<defs>
<clipPath id="clip0_7205_1239">
<rect width="16" height="16" fill="white" transform="translate(8 8)"/>
</clipPath>
</defs>
</svg>
